<svg width="456" height="896" viewBox="0 0 456 896" fill="none" xmlns="http://www.w3.org/2000/svg">
<path fill-rule="evenodd" clip-rule="evenodd" d="M299.47 482.722L279.21 530.472C277.76 533.882 278.15 537.592 280.27 540.702C282.39 543.822 285.64 545.212 289.27 545.242L363.79 545.882C366.68 545.902 369.05 544.432 370.82 542.122C373.12 539.122 375.33 536.052 377.47 532.962C384.64 522.662 391.28 506.742 397.37 495.892C399.18 492.662 399.18 488.922 397.37 485.582C395.56 482.242 392.45 480.262 388.8 480.102L308.77 476.742C304.65 476.572 301.11 478.842 299.47 482.712V482.722ZM329.85 406.632C324.68 419.972 317.26 440.632 311.22 452.712C310.57 454.012 310.64 455.442 311.42 456.712C312.2 457.982 313.46 458.722 314.94 458.782L408.16 462.452C412.45 462.622 416.15 460.382 417.9 456.562C424.47 442.252 429.42 430.012 434.16 415.192C435.21 411.892 434.62 408.562 432.48 405.742C430.34 402.922 427.25 401.502 423.72 401.452L339.27 400.182C334.96 400.122 331.37 402.692 329.85 406.642V406.632ZM349.97 321.222C348.23 336.132 345.91 350.052 343.31 362.332C342.87 364.392 342.41 366.452 341.91 368.512C341.13 371.752 341.87 374.902 344.03 377.542C346.19 380.182 349.16 381.572 352.56 381.532L435.42 380.442C440.35 380.372 444.38 377.072 445.33 372.322C448.96 354.092 451.69 335.632 453.43 317.102C453.73 313.902 452.66 310.992 450.33 308.672C448 306.352 445.06 305.272 441.81 305.542L359.27 312.342C354.33 312.752 350.53 316.382 349.97 321.242V321.222ZM351.43 229.222C353.17 246.912 353.54 264.892 352.93 282.342C352.82 285.452 353.97 288.212 356.29 290.392C358.61 292.572 361.44 293.572 364.58 293.312L446.26 286.582C451.57 286.142 455.55 281.922 455.63 276.652C455.67 273.452 455.69 270.242 455.68 267.052C455.6 250.582 454.65 233.392 452.51 216.012C452.15 213.082 450.75 210.652 448.35 208.832C445.96 207.012 443.24 206.302 440.3 206.722L360.12 218.212C354.67 218.992 350.89 223.782 351.43 229.222ZM334.48 156.622C339.5 167.672 342.66 178.662 345.43 191.452C346.61 196.922 351.93 200.612 357.48 199.812L436.91 188.432C439.88 188.002 442.25 186.542 443.91 184.102C445.57 181.662 446.06 178.932 445.37 176.022C441.33 159.102 435.93 142.382 428.86 126.352C426.67 121.392 421.13 118.812 415.97 120.342L340.79 142.642C337.84 143.512 335.68 145.392 334.43 148.162C333.18 150.932 333.2 153.812 334.47 156.632L334.48 156.622ZM192.78 123.682C201.17 115.832 210.66 108.602 221.15 103.072C233.32 96.6616 247.27 92.3716 261.95 93.2116C280.3 94.2616 295.15 102.992 306.68 114.652C308.58 116.572 311.21 120.062 313.64 123.362C316.38 127.082 320.97 128.652 325.35 127.362L402.74 104.482C406 103.522 408.34 101.292 409.44 98.1216C410.54 94.9516 410.09 91.7116 408.15 88.8716C401.34 78.9116 393.64 69.4716 384.95 60.6916C376.6 52.2616 367.41 44.3716 357.52 37.2016C312.76 4.75163 253.64 -12.8384 198.83 11.0916C155.52 29.9916 123.53 53.9616 96.52 86.2116C94.21 88.9716 93.56 92.4416 94.7 95.9216C95.84 99.4016 98.46 101.902 102.01 102.922L182.76 126.032C186.43 127.082 190.06 126.232 192.78 123.692V123.682ZM144.68 190.052C150.8 177.942 157.69 166.312 165.45 155.392C167.45 152.572 167.88 149.242 166.65 145.942C165.43 142.642 162.9 140.312 159.49 139.322L82.56 117.162C78.02 115.852 73.41 117.542 70.93 121.422C61.33 136.442 50.91 154.472 42.96 171.012C41.46 174.132 41.6 177.522 43.35 180.592C45.11 183.662 48 185.562 51.52 185.972L134.29 195.542C138.71 196.052 142.72 193.932 144.68 190.052ZM114.23 277.152C118.1 260.122 122.97 243.092 129 226.512C130.13 223.422 129.76 220.252 127.95 217.412C126.14 214.572 123.39 212.852 120.05 212.462L38.32 203.012C33.4 202.442 28.95 205.202 27.39 209.792C20.92 228.792 15.75 248.202 11.68 267.722C11.04 270.812 11.74 273.762 13.73 276.292C15.72 278.832 18.44 280.252 21.66 280.432L103.64 284.992C108.73 285.272 113.11 282.032 114.22 277.152H114.23ZM16.45 487.852C20.77 505.262 26.37 523.292 34.34 540.092C36.09 543.772 39.8 546.192 44.01 545.972L125.44 541.582C128.76 541.402 131.57 540.142 133.46 537.582C135.35 535.032 135.78 532.032 134.71 529.022L116.66 478.342C115.13 474.052 110.88 471.322 106.15 471.592L25.53 476.202C22.47 476.382 19.93 477.672 18.13 479.992C16.33 482.312 15.75 485.002 16.46 487.852H16.45ZM2.84 403.172C4.27 418.522 6.15 433.942 8.62 449.292C9.49 454.702 14.4 458.612 19.9 458.282L100.61 453.512C103.64 453.332 106.15 452.052 108.01 449.732C109.88 447.412 110.58 444.702 110.09 441.732C109.91 440.642 109.73 439.542 109.55 438.452C107.56 425.992 105.94 413.362 104.73 400.702C104.2 395.202 99.44 390.962 93.85 391.032L12.89 392.102C9.9 392.142 7.37 393.272 5.4 395.442C3.43 397.612 2.56 400.222 2.84 403.172ZM198.16 155.072L312.5 170.932C316.76 171.522 320.12 174.502 321.36 178.712C326.53 196.282 329.51 212.932 331.32 232.442C331.63 235.732 330.58 238.662 328.28 240.932C325.98 243.202 323.08 244.182 319.85 243.772L236.89 233.392C231.35 232.702 226.37 236.482 225.5 242.052L216.41 300.372C215.92 303.502 216.71 306.432 218.71 308.932C220.71 311.442 223.37 312.832 226.51 313.002L317.08 318.082C320.2 318.252 322.85 319.632 324.85 322.122C326.85 324.612 327.65 327.512 327.18 330.642C325.94 338.972 324.55 346.782 323.07 353.892C321.13 363.232 318.09 376.362 314.88 387.102C313.53 391.632 309.57 394.532 304.87 394.432L214.97 392.482C209.71 392.362 205.34 396.142 204.62 401.412L197.95 450.222C197.52 453.352 198.35 456.252 200.39 458.722C202.42 461.192 205.09 462.532 208.22 462.662L263.9 465.042C267.49 465.192 270.56 466.992 272.53 470.102C274.5 473.212 274.83 476.762 273.46 480.092L254.23 526.772C252.64 530.632 249.2 533.002 245.06 533.102L169.31 534.962C164.85 535.072 160.91 532.482 159.12 528.262C156.31 521.602 152.41 512.422 151.89 510.952C115.01 406.422 121.98 250.622 188.43 159.152C190.72 156.002 194.27 154.532 198.15 155.072H198.16ZM227.28 136.702L306.92 148.052C307.46 148.132 307.95 147.952 308.3 147.562C308.65 147.172 308.77 146.662 308.63 146.142C306.58 138.622 297.24 114.322 261.09 109.472C245.93 107.582 232.96 111.892 223.16 117.352C219.21 119.552 209.07 127.522 210.02 131.982C210.97 136.442 222.71 136.052 227.27 136.702H227.28ZM135.24 803.782L73.07 825.852C70.26 826.852 67.44 826.662 64.72 825.302C62.01 823.942 60.16 821.782 59.26 818.922C56.65 810.642 55.09 801.992 54.74 793.092L53.7 767.052C53.49 761.822 57.17 757.422 62.38 756.642L122.33 747.762C125.43 747.302 128.3 748.112 130.75 750.122C133.2 752.132 134.53 754.792 134.65 757.892L134.98 766.082C135.31 774.432 137.4 782.412 140.93 789.752C142.25 792.492 142.35 795.312 141.22 798.082C140.1 800.842 138.07 802.782 135.23 803.782H135.24ZM124.39 728.492L64.44 737.372C61.34 737.832 58.46 737.022 56.02 735.012C53.57 733.002 52.24 730.342 52.11 727.242L50.83 695.172C50.6 689.452 55.14 684.732 60.92 684.652L121.2 683.852C126.99 683.772 131.89 688.372 132.12 694.092L133.07 718.072C133.28 723.302 129.6 727.702 124.39 728.482V728.492ZM157.38 817.342L86.53 842.482C83.19 843.672 80.9 846.192 80.08 849.612C79.26 853.032 80.13 856.382 82.54 859.052C106.85 886.032 144.37 895.892 186 895.342L216.45 894.942L246.89 894.542C288.51 893.992 325.21 883.162 347.35 855.562C349.54 852.832 350.15 849.462 349.05 846.072C347.96 842.682 345.47 840.212 342.04 839.122L269.26 815.872C265.97 814.822 262.72 815.312 259.97 817.272C247.41 826.212 231.44 831.662 213.93 831.892C196.42 832.122 180.04 827.102 166.78 818.502C163.88 816.622 160.59 816.212 157.39 817.352L157.38 817.342ZM290.3 801.732L354.16 822.132C357.05 823.052 359.85 822.792 362.46 821.362C365.06 819.932 366.74 817.722 367.41 814.842C369.36 806.502 370.23 797.822 369.87 788.922L368.84 762.882C368.63 757.652 364.61 753.352 359.34 752.712L298.74 745.422C295.61 745.042 292.8 745.922 290.51 748.002C288.23 750.072 287.1 752.762 287.23 755.872L287.56 764.062C287.89 772.412 286.44 780.442 283.5 787.872C282.4 790.642 282.53 793.462 283.87 796.192C285.21 798.922 287.39 800.802 290.31 801.732H290.3ZM295.16 726.242L355.76 733.532C358.89 733.912 361.7 733.032 363.99 730.952C366.28 728.882 367.4 726.192 367.28 723.082L366 691.012C365.77 685.292 360.87 680.692 355.08 680.772L294.8 681.572C289.01 681.652 284.48 686.372 284.71 692.092L285.66 716.072C285.87 721.302 289.89 725.602 295.16 726.242ZM281.92 622.232L283.16 653.362C283.39 659.082 288.29 663.682 294.08 663.602L354.35 662.802C360.14 662.722 364.67 658.002 364.44 652.282L363.2 621.152C362.97 615.432 358.07 610.832 352.28 610.912L292.01 611.712C286.22 611.792 281.69 616.512 281.92 622.232ZM129.35 624.252L130.58 655.382C130.81 661.102 126.28 665.822 120.49 665.902L60.21 666.702C54.42 666.782 49.52 662.182 49.29 656.462L48.05 625.332C47.82 619.612 52.36 614.892 58.14 614.812L118.41 614.012C124.2 613.932 129.1 618.532 129.33 624.252H129.35ZM240.5 748.032L266.31 747.692L267.21 771.392C267.7 784.412 257.35 795.172 244.17 795.342L218.36 795.682L217.46 771.982C216.97 758.962 227.32 748.202 240.5 748.032ZM154.64 749.172L180.97 748.822C194.34 748.642 205.66 759.122 206.16 772.142L207.07 795.842L180.74 796.192C167.37 796.372 156.05 785.892 155.55 772.872L154.64 749.172ZM240.92 687.892L266.18 687.562L267.04 711.092C267.51 724.012 257.36 734.692 244.44 734.862L219.18 735.192L218.32 711.662C217.85 698.742 228 688.062 240.92 687.892ZM154.27 689.102L181.26 688.742C194.95 688.562 206.52 698.952 207.02 711.872L207.93 735.402L180.94 735.762C167.25 735.942 155.68 725.552 155.18 712.632L154.27 689.102ZM152.5 621.672L179.48 621.312C193.17 621.132 204.73 630.952 205.23 643.162L206.48 674.072L179.5 674.432C165.81 674.612 154.25 664.792 153.75 652.582L152.5 621.672ZM240.49 620.512L267 620.162L268.23 650.992C268.72 663.182 258.09 673.272 244.57 673.442L218.06 673.792L216.83 642.962C216.34 630.772 226.97 620.692 240.49 620.512ZM163.11 567.642L174.95 567.482C176.4 567.462 177.62 568.612 177.68 570.042L179.08 605.272C179.14 606.702 178 607.882 176.56 607.902L164.72 608.062C163.28 608.082 162.05 606.932 161.99 605.502L160.59 570.272C160.54 568.842 161.67 567.662 163.12 567.642H163.11ZM196.55 565.992L208.51 565.832C209.96 565.812 211.18 566.962 211.24 568.392L212.69 604.832C212.75 606.262 211.61 607.442 210.17 607.462L198.21 607.622C196.77 607.642 195.54 606.492 195.48 605.062L194.03 568.622C193.97 567.192 195.11 566.012 196.55 565.992ZM233.12 564.302L245.07 564.142C246.52 564.122 247.74 565.272 247.8 566.702L249.3 604.352C249.36 605.782 248.22 606.962 246.78 606.982L234.82 607.142C233.37 607.162 232.15 606.012 232.09 604.582L230.59 566.932C230.53 565.502 231.67 564.322 233.11 564.302H233.12ZM0 357.482C0.03 359.432 0.08 361.382 0.15 363.342C0.24 366.212 1.36 368.682 3.49 370.692C5.62 372.702 8.16 373.702 11.07 373.662L92.26 372.592C98 372.512 102.51 367.882 102.36 362.202C102.35 361.682 102.33 361.162 102.32 360.642C102.32 360.312 102.32 360.032 102.34 359.712C103.3 345.422 104.85 330.482 107.12 315.242C107.57 312.222 106.77 309.412 104.77 307.012C102.77 304.612 100.14 303.282 97.03 303.112L15.63 298.592C10.22 298.292 5.61 302.032 4.89 307.302C2.62 323.862 1.04 340.372 0.02 356.682C0 356.972 0 357.212 0 357.492L0 357.482ZM64.44 344.462L64.52 345.772C64.69 345.922 64.85 346.082 65.02 346.232L65.07 347.102C65.39 347.472 65.8 347.232 66.23 347.292C66.56 346.952 66.91 346.582 67.27 346.202C67.3 346.172 67.27 346.102 67.27 346.042C67.16 345.952 67.04 345.842 66.91 345.722C66.82 345.102 66.77 344.462 66.8 343.842C67.06 343.612 67.27 343.412 67.49 343.212C67.85 343.262 68.02 343.022 68.25 342.842C68.46 342.682 68.77 342.632 69.02 342.542L68.97 341.592C68.57 341.262 68.16 340.912 67.73 340.552L65.42 340.642C65.29 340.762 65.13 340.922 64.95 341.082L64.42 341.102C64.11 341.442 63.75 341.822 63.43 342.232C63.36 342.322 63.41 342.512 63.4 342.672C63.55 342.812 63.71 342.972 63.89 343.142L63.94 343.992C64.11 344.152 64.28 344.302 64.45 344.462H64.44ZM34.93 343.542C34.85 343.542 34.7 343.542 34.55 343.512C34.49 343.502 34.43 343.422 34.38 343.372C34.26 343.232 34.14 343.162 34.04 343.212C33.78 343.362 33.93 343.602 33.91 343.812C33.76 343.972 33.62 344.142 33.47 344.292L33.6 346.502C34 346.842 34.41 347.192 34.83 347.552L36.2 347.502C36.29 347.422 36.41 347.332 36.51 347.232C36.66 347.072 36.79 346.902 36.88 346.802L36.78 345.172C36.1 344.582 35.54 344.082 34.93 343.552V343.542ZM44.92 347.522L44.89 346.972C44.72 346.812 44.55 346.662 44.4 346.522L44.37 346.092C44.52 345.912 44.65 345.762 44.83 345.542C44.56 345.482 44.35 345.432 44.2 345.402C43.49 346.142 42.82 346.842 42.15 347.542C42.15 347.542 42.2 347.612 42.27 347.642C42.33 347.682 42.4 347.712 42.47 347.712C42.78 347.712 43.09 347.702 43.39 347.682C43.84 347.652 44.31 347.712 44.91 347.522H44.92ZM49.89 348.342C49.69 348.552 49.48 348.772 49.28 348.982C49.28 349.122 49.22 349.272 49.26 349.392C49.3 349.512 49.44 349.672 49.54 349.682C50.15 349.682 50.76 349.652 51.37 349.632C51.57 349.422 51.78 349.202 51.98 348.992C51.98 348.852 52.04 348.702 52 348.582C51.96 348.462 51.82 348.302 51.72 348.292C51.11 348.292 50.5 348.322 49.89 348.342ZM51.14 333.722C51.48 334.052 51.68 334.272 51.87 334.452C52.1433 334.438 52.3633 334.375 52.53 334.262C52.59 333.772 52.6 333.272 52.42 332.802C52.4 332.742 52.31 332.712 52.25 332.662L51.34 332.692C50.96 332.972 51.18 333.352 51.14 333.722ZM409.48 349.392C409.43 348.722 409.42 348.712 408.69 348.802C408.49 349.012 408.29 349.212 408.07 349.452C408.38 349.602 408.51 349.962 408.88 350.022C409.09 349.802 409.29 349.602 409.49 349.392H409.48ZM53.86 239.472C53.59 239.782 53.41 240.012 53.05 239.972C52.83 239.952 52.6 239.952 52.43 239.942C52.27 239.802 52.15 239.702 52.04 239.602C51.62 239.652 51.31 239.462 51.05 239.162L50.11 239.202C49.97 239.342 49.81 239.492 49.65 239.652C49.44 239.692 49.18 239.572 49.03 239.842C48.95 240.332 48.95 240.832 49.14 241.322C49.26 241.422 49.37 241.522 49.49 241.622C49.49 242.022 49.7 242.302 50.03 242.512C50.05 242.652 50.06 242.802 50.09 243.012C50.47 243.312 50.89 243.642 51.38 244.032L52.71 243.982C52.83 243.862 53 243.722 53.16 243.562C53.3 243.552 53.45 243.542 53.66 243.522C53.97 243.162 54.32 242.772 54.71 242.322L54.61 240.652C54.76 240.482 54.9 240.312 55.05 240.132C55.05 240.002 55.05 239.852 55.05 239.712C54.77 239.292 54.36 239.542 53.87 239.482L53.86 239.472ZM58.13 251.362C58.08 252.042 58.13 252.742 58.22 253.402C58.72 253.842 59.18 254.232 59.65 254.642L59.7 255.502C59.98 255.752 60.2 256.062 60.61 256.182C60.88 256.162 61.18 256.132 61.62 256.092L61.48 253.692C61.31 253.542 61.15 253.382 60.98 253.232L60.9 251.912C60.49 251.562 60.09 251.212 59.68 250.852L59.21 250.872C59.07 251.012 58.91 251.172 58.75 251.332L58.12 251.352L58.13 251.362ZM58.3 259.372C58.1 259.582 57.9 259.792 57.69 260.002C57.68 260.142 57.67 260.272 57.65 260.412C57.83 260.732 58.15 260.922 58.43 261.142L58.88 261.122C59.09 260.902 59.29 260.692 59.54 260.442C59.53 260.202 59.54 259.922 59.48 259.642C59.46 259.532 59.31 259.442 59.21 259.342C58.91 259.352 58.6 259.362 58.3 259.382V259.372ZM81.52 247.372L81.06 247.392C80.74 247.842 80.75 247.842 81.1 248.282L81.56 248.262C81.88 247.812 81.87 247.812 81.52 247.372ZM396.56 251.692C396.69 251.812 396.8 251.972 396.93 251.992C397.3 252.062 397.65 252.132 397.93 252.432C398 252.512 398.22 252.452 398.37 252.462C398.65 252.222 398.95 252.002 399.08 251.662C399.07 251.432 399.08 251.212 399.03 250.992C399 250.872 398.86 250.772 398.76 250.662L397.86 250.692C397.66 250.542 397.49 250.402 397.3 250.252L395.47 250.322C395.16 250.052 394.87 249.802 394.58 249.552C394.51 249.532 394.44 249.492 394.37 249.492C393.75 249.512 393.12 249.532 392.5 249.562C392.36 249.562 392.22 249.632 392.06 249.672C391.87 249.882 391.68 250.102 391.53 250.262L391.58 251.052C392.05 251.522 392.42 251.902 392.73 252.202L394.19 252.152C394.39 251.972 394.55 251.832 394.7 251.702C395.35 251.712 395.97 251.592 396.57 251.682L396.56 251.692ZM424.61 243.022L423.68 243.052C423.47 243.202 423.5 243.412 423.45 243.622C423.41 243.812 423.22 243.982 423.06 244.212L423.14 245.502C423.26 245.622 423.42 245.772 423.59 245.942C423.6 246.072 423.62 246.212 423.64 246.402C423.93 246.582 424.11 246.942 424.51 247.032C425.04 246.922 425.04 246.912 425.06 246.532C425.06 246.462 425.06 246.392 425.06 246.332C425.21 246.152 425.35 245.992 425.46 245.862L425.33 243.632C425.08 243.412 424.85 243.212 424.61 243.012V243.022ZM427.95 240.002C428.35 240.352 428.75 240.702 429.21 241.092C429.54 240.702 429.87 240.312 430.26 239.842L430.22 239.072C430.02 238.812 429.75 238.572 429.46 238.422L428.56 238.452C428.31 238.702 428.1 238.912 427.9 239.112L427.95 240.012V240.002ZM410.44 241.322L411.34 241.292C411.65 241.112 411.63 240.852 411.52 240.572C411.3 240.382 411.07 240.182 410.84 239.982L410.39 240.002C410.16 240.222 409.86 240.412 409.76 240.742C409.99 240.942 410.21 241.132 410.44 241.322ZM399.44 238.172C399.14 238.182 398.84 238.172 398.55 238.222C398.47 238.232 398.43 238.402 398.37 238.492C398.6 238.692 398.83 238.882 399.05 239.082C399.25 238.872 399.45 238.662 399.65 238.462C399.68 238.352 399.61 238.262 399.45 238.182L399.44 238.172ZM401.66 247.672C401.66 247.602 401.64 247.522 401.66 247.462C401.69 247.292 401.64 247.172 401.49 247.092C401.38 247.032 401.29 247.092 401.18 247.232C401.05 247.402 400.88 247.542 400.71 247.702C401.07 247.982 401.38 248.002 401.67 247.672H401.66ZM80.21 520.542C80.36 520.362 80.51 520.182 80.64 520.032L80.56 518.592C80.21 518.352 80 518.052 80 517.652C79.76 517.422 79.54 517.202 79.32 516.982L78.85 517.002C78.66 516.842 78.48 516.692 78.34 516.562L77.44 516.592C77.23 516.772 77.07 517.042 76.89 517.052C76.54 517.072 76.36 517.292 76.13 517.492C75.92 517.682 75.52 517.532 75.36 517.862C75.2 518.202 74.79 518.002 74.58 518.232C74.54 518.272 74.53 518.342 74.52 518.382C74.67 518.572 74.93 518.742 74.94 518.922C74.97 519.282 75.25 519.442 75.38 519.702C75.55 520.032 75.6 520.412 75.94 520.662C76.03 520.722 75.99 520.952 76.04 521.252C76.32 521.462 76.7 521.742 77.01 521.962L77.04 522.482C77.65 523.082 78.22 523.632 78.76 524.162L79.25 524.142C79.47 523.902 79.67 523.672 79.88 523.432C79.88 523.272 79.88 523.122 79.88 522.952C80.02 522.782 80.17 522.602 80.32 522.422L80.21 520.532V520.542ZM83.27 529.262L81.86 529.312C81.36 529.882 80.85 530.462 80.32 531.072C80.35 531.662 80.38 532.292 80.43 532.922C80.43 532.982 80.53 533.032 80.64 533.152C80.98 533.092 81.31 533.232 81.57 533.552C81.61 533.602 81.7 533.592 81.77 533.622C82.22 533.642 82.68 533.512 83.13 533.662C83.25 533.772 83.36 533.872 83.55 534.052C83.71 533.722 84.06 533.562 84.16 533.252L83.98 529.932C83.72 529.692 83.49 529.482 83.26 529.262H83.27ZM83.26 512.062C83.62 511.652 83.99 511.252 84.36 510.832L84.25 508.932C84.1 508.782 83.93 508.622 83.76 508.452L83.73 507.992C83.5 507.772 83.26 507.562 83.01 507.322L82.04 507.362C81.78 507.652 81.47 507.992 81.17 508.342C81.08 508.452 81.03 508.602 80.96 508.722L81 509.472C80.88 509.632 80.74 509.812 80.63 509.952C81.36 510.632 82.11 511.322 82.92 512.082H83.25L83.26 512.062ZM75.44 510.692L75.52 512.132C75.92 512.482 76.32 512.852 76.77 513.252L78.13 513.202C78.52 512.802 78.99 512.412 79.27 511.872C79.24 511.552 79.21 511.242 79.18 511.002C78.71 510.602 78.36 510.172 77.94 509.922L76.6 509.972C76.37 510.162 76.22 510.372 76.02 510.432C75.81 510.492 75.58 510.492 75.44 510.712V510.692ZM85.45 527.722C85.9 527.262 86.28 526.892 86.62 526.542L86.59 526.022C86.18 525.642 85.78 525.262 85.37 524.892L84.92 524.912C84.74 524.762 84.57 524.612 84.39 524.462C84.18 524.692 83.98 524.922 83.74 525.192C83.77 525.772 83.8 526.392 83.85 527.012C83.85 527.072 83.92 527.132 83.98 527.222C84.19 527.402 84.42 527.602 84.6 527.762L85.46 527.732L85.45 527.722ZM59.09 516.322C59.27 516.482 59.45 516.632 59.62 516.782C59.86 516.762 60.11 516.822 60.26 516.522L60.18 515.122C59.95 514.862 59.71 514.552 59.32 514.392C59.04 514.412 58.74 514.442 58.48 514.462C58.25 514.732 58.06 514.962 57.76 515.332C58.62 515.282 58.16 516.122 58.63 516.342L59.09 516.322ZM77.12 528.062C77.29 527.762 77.67 527.592 77.77 527.202C77.69 526.842 77.89 526.402 77.47 526.142L76.52 526.182C76.35 526.482 75.97 526.652 75.87 527.042C75.95 527.412 75.75 527.842 76.16 528.102L77.11 528.062H77.12ZM287.95 850.852C288.37 850.412 288.83 849.932 289.27 849.472C289.46 849.462 289.61 849.442 289.76 849.432C290.12 849.052 290.48 848.682 290.84 848.302L290.79 847.402C290.39 847.072 289.99 846.732 289.53 846.342C288.98 846.362 288.36 846.382 287.75 846.412C287.69 846.412 287.63 846.492 287.57 846.532C287.47 846.642 287.36 846.752 287.26 846.852C287.11 846.862 286.96 846.872 286.82 846.892C286.46 847.052 286.61 847.392 286.52 847.632C286.26 847.902 286 848.172 285.74 848.442C285.6 848.932 285.9 849.442 285.67 849.932C285.57 850.042 285.46 850.142 285.34 850.272L285.39 851.162C285.52 851.282 285.69 851.432 285.85 851.592C286.09 851.832 286.35 851.882 286.66 851.732C286.92 851.462 287.17 851.192 287.43 850.932C287.58 850.912 287.72 850.892 287.94 850.862L287.95 850.852ZM168.91 870.462C168.63 870.772 168.28 871.162 167.96 871.572C167.89 871.662 167.94 871.852 167.93 872.122C167.67 872.342 167.32 872.622 167.05 872.852L167.11 873.852C167.28 874.012 167.45 874.162 167.6 874.312C167.63 874.542 167.57 874.772 167.87 874.932L169.26 874.882C169.38 874.772 169.54 874.622 169.72 874.452L171.14 874.402C171.46 874.032 171.8 873.642 172.19 873.172C172.07 872.862 172.34 872.602 172.63 872.342C172.47 872.192 172.31 872.042 172.14 871.892C172.14 871.752 172.12 871.602 172.11 871.462C171.71 871.112 171.3 870.762 170.89 870.402L168.9 870.472L168.91 870.462ZM194.48 864.602L194.93 864.582C195.29 864.202 195.65 863.822 196.05 863.412C196.02 862.862 196 862.282 195.94 861.702C195.93 861.602 195.75 861.492 195.63 861.442C195.5 861.392 195.28 861.472 195.2 861.392C194.91 861.112 194.6 861.002 194.18 861.032C193.42 861.092 192.65 861.102 192.03 861.122C191.55 861.572 191.18 861.932 190.84 862.242L190.89 863.162C191.07 863.332 191.23 863.492 191.4 863.652L191.45 864.572C191.66 864.622 191.87 864.672 192.18 864.742C192.27 864.812 192.45 864.952 192.64 865.102L194.02 865.052C194.16 864.912 194.32 864.752 194.48 864.592V864.602ZM228.16 859.102L228.08 857.772C227.85 857.582 227.62 857.382 227.35 857.162L225.5 857.232C225.23 857.422 224.96 857.662 224.83 857.932L224.88 858.822C225.2 859.102 225.49 859.352 225.78 859.602C225.8 859.742 225.83 859.882 225.86 860.052C225.73 860.202 225.59 860.372 225.43 860.562L225.54 862.452C225.87 862.702 226.28 863.052 226.72 863.352C226.82 863.422 227.01 863.382 227.19 863.392C227.34 863.252 227.5 863.102 227.69 862.922C227.96 862.922 228.27 862.922 228.57 862.882C228.74 862.852 228.81 862.702 228.75 862.602C228.71 862.542 228.64 862.462 228.58 862.462C228.43 862.442 228.27 862.462 228.12 862.462C227.68 862.122 227.85 861.682 227.91 861.262C228.14 861.072 228.34 860.852 228.22 860.472C228.09 860.352 227.93 860.192 227.76 860.032C227.75 859.902 227.73 859.762 227.71 859.602C227.85 859.442 228 859.282 228.15 859.112L228.16 859.102ZM179.14 871.182C178.57 870.682 177.99 870.192 177.42 869.692C177.26 869.842 177.11 869.992 176.94 870.152L176.49 870.172C176.28 870.392 176.08 870.612 175.85 870.842L175.95 872.602C176.33 872.992 176.75 873.412 177.25 873.702C177.73 873.662 178.19 873.722 178.55 873.612C178.82 873.362 179.04 873.162 179.23 872.982C179.19 872.352 179.16 871.772 179.12 871.182H179.14ZM265.49 863.832L265.6 865.732C266.01 866.082 266.41 866.432 266.84 866.802C267.45 866.782 268.07 866.762 268.69 866.722C268.75 866.722 268.8 866.632 268.89 866.542C268.92 865.932 268.89 865.282 268.77 864.642C268.3 864.342 267.99 863.892 267.46 863.642C266.88 863.732 266.25 863.622 265.49 863.832ZM172.68 858.062C172.43 857.812 172.22 857.602 172.02 857.412L171.54 857.432C171.35 857.282 171.17 857.142 171.01 857.012C170.84 857.032 170.69 857.042 170.56 857.062C170.19 857.442 169.83 857.812 169.47 858.182L169.58 859.982C169.79 860.152 170.03 860.342 170.35 860.582C170.62 860.582 170.99 860.662 171.35 860.492C171.55 860.272 171.74 860.062 171.92 859.862C171.92 859.682 171.92 859.542 171.92 859.402C172.1 859.182 172.39 859.032 172.32 858.682C172.26 858.382 172.71 858.302 172.68 858.072V858.062ZM294.69 849.822L294.75 850.822C294.61 850.992 294.46 851.152 294.29 851.342C294.72 851.502 294.84 851.832 294.86 852.192C295.1 852.402 295.33 852.602 295.57 852.802L297.01 852.752C297.19 852.552 297.4 852.352 297.57 852.112C297.64 852.012 297.6 851.842 297.62 851.572C297.31 851.362 296.93 851.112 296.69 850.942C296.52 850.432 296.73 850.032 296.41 849.732C295.88 849.612 295.36 849.652 294.69 849.822ZM282.27 870.002L282.24 869.572C282.07 869.412 281.9 869.262 281.73 869.102L281.68 868.252C281.51 868.082 281.37 867.932 281.24 867.802C281.4 867.602 281.53 867.432 281.65 867.272C281.61 866.952 281.58 866.662 281.56 866.432C281.09 866.062 280.75 865.652 280.21 865.372C280.04 865.442 279.84 865.522 279.66 865.592L279.77 867.412C279.94 867.572 280.11 867.722 280.26 867.872C280.28 868.032 280.3 868.172 280.31 868.322C280.66 868.532 280.85 868.822 280.86 869.212C281.15 869.462 281.44 869.712 281.76 869.992C281.78 870.182 281.81 870.402 281.83 870.612C281.83 870.682 281.81 870.782 281.85 870.832C281.93 870.942 282.03 871.062 282.16 871.112C282.36 871.192 282.73 871.042 282.76 870.902C282.79 870.762 282.76 870.612 282.76 870.452C282.6 870.302 282.43 870.152 282.26 869.992L282.27 870.002ZM236.01 873.102C235.73 872.872 235.52 872.552 235.14 872.442C234.79 872.512 234.35 872.302 234.11 872.722C234.15 873.452 234.19 874.182 234.24 874.912C234.24 874.962 234.34 875.012 234.41 875.072C234.99 875.112 235.58 875.232 236.11 874.872L236.01 873.102ZM163.74 860.402C163.53 860.622 163.32 860.842 163.1 861.072L163.15 861.982C163.33 862.142 163.55 862.352 163.78 862.542C163.93 862.662 164.28 862.652 164.41 862.522C164.62 862.312 164.82 862.092 164.98 861.922L164.93 861.012C164.68 860.792 164.44 860.592 164.21 860.392C164.05 860.392 163.9 860.402 163.74 860.412V860.402ZM234.8 864.432C235.09 863.902 235.04 862.812 234.69 862.232C234.54 862.232 234.39 862.232 234.23 862.232C234.09 862.372 233.95 862.552 233.77 862.672C233.49 862.872 233.61 863.182 233.5 863.422C233.42 863.582 233.28 863.722 233.19 863.822C233.44 864.072 233.66 864.282 233.84 864.462L234.8 864.422V864.432ZM236.69 864.862C236.44 865.102 236.22 865.302 236.02 865.492C236.13 865.852 235.91 866.242 236.24 866.532C237.96 866.582 237.96 866.572 238.39 866.322V865.882C238.24 865.742 238.06 865.612 237.92 865.442C237.71 865.172 237.38 865.272 237.12 865.172C236.94 865.102 236.8 864.952 236.68 864.862H236.69ZM157.72 857.742C157.22 857.452 157.11 857.452 156.78 857.772C156.62 857.922 156.46 858.072 156.34 858.182L156.39 859.122C156.89 859.412 157 859.412 157.33 859.092C157.49 858.942 157.65 858.792 157.78 858.682L157.73 857.742H157.72ZM218.69 865.702C218.92 865.902 219.16 866.102 219.41 866.322C219.56 866.182 219.72 866.042 219.86 865.892C220.19 865.542 220.21 865.402 219.8 864.982C219.62 864.802 219.59 864.622 219.54 864.402C219.52 864.312 219.36 864.232 219.26 864.152C219.05 864.372 218.84 864.582 218.64 864.802C218.66 865.102 218.68 865.392 218.69 865.692V865.702ZM213.75 861.432C213.59 861.242 213.38 861.252 213.16 861.212C212.96 861.172 212.81 860.962 212.62 860.872C212.32 860.742 212.05 860.792 211.86 861.062C211.86 861.202 211.88 861.352 211.89 861.492C212.12 861.692 212.34 861.882 212.6 862.102C212.79 862.102 213.01 862.112 213.23 862.102C213.77 862.082 213.79 862.042 213.76 861.422L213.75 861.432ZM186.28 868.912C186.48 868.702 186.68 868.492 186.88 868.282C186.96 868.082 186.98 867.872 186.83 867.702C186.64 867.482 186.41 867.292 186.25 867.132L185.71 867.152C185.31 867.512 185.56 867.932 185.61 868.332C185.83 868.522 186.06 868.722 186.28 868.912ZM270.57 854.072C270.5 853.762 270.62 853.522 270.31 853.362C269.98 853.292 269.62 853.282 269.27 853.422C269.21 853.442 269.17 853.522 269.11 853.582C269.15 853.782 269.04 854.032 269.32 854.172C269.67 854.272 270.03 854.242 270.57 854.082V854.072ZM296.72 864.792C296.49 864.792 296.27 864.832 296.04 864.812C295.86 864.802 295.74 864.832 295.66 864.972C295.61 865.072 295.68 865.162 295.83 865.272C296 865.412 296.15 865.582 296.26 865.692L296.8 865.672C296.987 865.358 296.963 865.062 296.73 864.782L296.72 864.792ZM217.47 868.812C217.47 868.952 217.5 869.032 217.48 869.102C217.44 869.272 217.5 869.392 217.66 869.462C217.77 869.502 217.85 869.432 217.97 869.302C218.11 869.142 218.28 869.012 218.41 868.892C218.41 868.752 218.38 868.672 218.39 868.612C218.43 868.442 218.37 868.322 218.21 868.252C218.1 868.202 218.02 868.282 217.9 868.422C217.76 868.582 217.59 868.712 217.47 868.822V868.812ZM310.73 68.1916C310.89 68.0316 311.05 67.8816 311.2 67.7316C311.37 67.7216 311.52 67.7016 311.67 67.6916C311.77 67.5816 311.88 67.4716 311.98 67.3616C312.15 67.1816 312.43 67.3016 312.6 67.1716C312.83 66.9916 312.97 66.7516 313.34 66.7416C313.7 66.7216 313.82 66.1716 314.29 66.2716C314.46 66.1316 314.63 66.0016 314.79 65.8416C315.26 65.3616 315.72 64.8716 316.19 64.3816C316.67 64.3616 317.13 64.3516 317.59 64.3216C317.65 64.3216 317.69 64.2216 317.76 64.1516L317.71 63.2716C317.47 63.0316 317.24 62.7316 316.87 62.6116C316.25 62.5916 315.64 62.7316 315.05 62.6216C314.91 62.5016 314.79 62.4016 314.65 62.2716L313.8 62.3016C313.43 62.0916 313.13 61.8716 312.94 61.5516C312.87 61.4316 312.88 61.2816 312.85 61.1416C312.56 60.8916 312.27 60.6416 311.98 60.3916C311.95 60.2516 311.96 60.0916 311.89 59.9716C311.83 59.8616 311.67 59.6816 311.59 59.7016C311.13 59.8116 310.93 59.4016 310.6 59.2816C310.14 59.3216 309.63 59.1916 309.37 59.7016C308.79 59.7616 308.45 60.1016 308.15 60.5816C308.32 60.9016 308.03 61.0716 307.85 61.3016C307.72 61.4616 307.74 61.7816 307.85 61.9016C308.06 62.1216 308.27 62.3316 308.42 62.4916L310.06 62.4316C310.03 63.1916 310.85 62.5916 311.12 63.0516L311.22 64.8216C311.09 64.9716 310.94 65.1316 310.79 65.3016L310.82 65.7316C310.67 65.9016 310.41 66.0616 310.4 66.2216C310.36 66.8116 310.4 66.8216 309.73 66.8916C309.51 67.1316 309.19 67.3316 309.05 67.6716C309.09 67.8116 309.11 67.9616 309.16 68.0916C309.19 68.1516 309.27 68.2016 309.31 68.2416L310.72 68.1916H310.73ZM235.33 49.8516L235.43 51.6216C235.89 52.0216 236.35 52.4116 236.81 52.8216C236.84 52.8516 236.83 52.9216 236.84 52.9716C236.74 53.0816 236.63 53.1916 236.53 53.2916C236.43 53.8716 236.42 53.9216 235.75 54.5016C235.6 54.5216 235.46 54.5416 235.33 54.5616C235.1 54.7816 234.89 55.0016 234.69 55.2016C234.73 55.4216 234.63 55.6716 235.02 55.8616C235.83 55.8316 236.75 55.8016 237.67 55.7616C237.74 55.7616 237.8 55.7016 237.86 55.6716C237.96 55.5616 238.07 55.4516 238.19 55.3216L239.05 55.2916C239.38 55.0516 239.65 54.8116 239.78 54.5416L239.73 53.6516C239.4 53.3716 239.11 53.1216 238.8 52.8516L238.72 51.5116C238.83 51.3816 238.97 51.2216 239.11 51.0416C239.11 50.9116 239.11 50.7716 239.11 50.6116C239.25 50.4516 239.4 50.2916 239.55 50.1216L239.52 49.6916C239.67 49.5216 239.82 49.3616 239.95 49.2116L239.85 47.4316C239.61 47.2216 239.38 47.0216 239.13 46.8116L237.32 46.8816C236.95 47.2616 236.59 47.6416 236.19 48.0616C236.23 48.3816 236.05 48.6716 235.74 48.9116V49.3616C235.6 49.5216 235.45 49.6816 235.3 49.8516H235.33ZM174.99 60.4516C175.75 61.1116 176.5 61.7516 177.33 62.4716L178.57 62.4216C178.75 62.5716 178.92 62.7116 179.11 62.8516L179.99 62.8216C180.59 63.2116 181 63.7716 181.53 64.0716L182.39 64.0416C182.7 63.7716 182.93 63.5716 183.1 63.4216L182.99 61.6116C182.81 61.4416 182.65 61.2816 182.48 61.1216L182.43 60.3416C181.98 59.9216 181.6 59.5616 181.22 59.2216L179.33 59.2916C178.97 59.0116 178.68 58.6516 178.26 58.4516C177.57 58.5616 177.39 57.9116 176.95 57.6616C176.8 57.6516 176.65 57.6416 176.39 57.6216C176.11 57.9716 175.79 58.3816 175.39 58.9016C175.39 59.0816 175.31 59.4316 174.94 59.6616L174.99 60.4716V60.4516ZM196.23 75.1416L198.11 75.0716C198.46 74.6916 198.82 74.3116 199.2 73.9116L199.07 71.7116C198.93 71.5816 198.76 71.4216 198.59 71.2616L198.56 70.8216C197.98 70.3316 197.4 69.8316 196.81 69.3316L196.37 69.3516C196.19 69.2016 196.01 69.0616 195.84 68.9216C195.67 68.9316 195.52 68.9516 195.39 68.9616C195.01 69.3516 194.65 69.7216 194.29 70.0916L194.34 70.9816C194.51 71.1416 194.68 71.2916 194.85 71.4516L195 74.0916C195.42 74.4516 195.82 74.8016 196.22 75.1516L196.23 75.1416ZM256.03 42.8516L256.16 45.0816C256.38 45.2616 256.62 45.4516 256.9 45.6816L257.79 45.6516C257.79 45.6516 257.87 45.6216 257.92 45.5716C258.54 44.9316 259.16 44.2816 259.78 43.6316C259.78 43.4916 259.79 43.3516 259.8 43.2116C260.36 42.5616 260.41 42.5316 260.8 42.4216C261.32 41.9616 261.7 41.6216 262.01 41.3516C261.97 40.6316 261.94 40.0516 261.89 39.4716C261.89 39.4216 261.78 39.3716 261.7 39.3016L260.73 39.3416C260.32 39.7716 259.86 40.2416 259.42 40.7116C259.23 40.7216 259.08 40.7416 258.95 40.7516C258.78 40.9116 258.62 41.0616 258.46 41.2116L257.55 41.2516C257.39 41.7816 256.72 41.5516 256.46 41.9416L256.48 42.3616C256.33 42.5316 256.18 42.6916 256.03 42.8616V42.8516ZM264.91 30.2516L260.25 30.4216C260.08 30.2916 259.91 30.1416 259.72 30.0016L259.27 30.0216C259.12 30.1716 258.96 30.3316 258.8 30.4816C258.58 30.5116 258.32 30.4216 258.19 30.6716C258.21 30.7216 258.21 30.7916 258.24 30.8216C259.1 31.5716 259.96 32.3216 260.84 33.0716L261.29 33.0516C261.64 33.3416 261.98 33.6216 262.31 33.8916C262.49 33.7316 262.65 33.5816 262.81 33.4316L264.53 33.3616C265.12 32.7716 265.64 32.2416 266.16 31.7116C266.14 31.5616 266.12 31.4216 266.11 31.3216C265.69 30.9416 265.3 30.5916 264.91 30.2416V30.2516ZM273.6 38.6216C273.65 39.4416 273.69 40.2516 273.74 41.0616C273.76 41.4216 273.67 41.4916 273.16 41.5316C272.94 41.5516 272.72 41.5816 272.54 41.6016C272.4 41.7516 272.29 41.8616 272.19 41.9716C272.04 41.9916 271.89 42.0116 271.74 42.0316C271.68 42.0716 271.62 42.1116 271.56 42.1516C271.45 42.2516 271.35 42.3616 271.25 42.4816C270.92 42.8416 270.92 42.9416 271.3 43.3816L272.68 43.3316C272.86 43.1616 273.02 43.0116 273.17 42.8716C275.79 42.7716 277.25 42.6483 277.55 42.5016L277.43 40.3516C276.48 39.5316 275.56 38.7316 274.61 37.9116C274.51 37.9216 274.36 37.9416 274.22 37.9616C274.01 38.1816 273.8 38.4016 273.6 38.6116V38.6216ZM191.17 80.8916L191.25 82.2216C191.1 82.3916 190.95 82.5516 190.81 82.7116C190.81 82.8716 190.81 83.0116 190.81 83.1416C190.66 83.3116 190.52 83.4816 190.39 83.6316C190.39 83.8016 190.41 83.9516 190.42 84.1016C190.46 84.6716 190.46 84.6816 191.13 84.6816C191.3 84.8216 191.47 84.9616 191.65 85.1016L193.5 85.0316C193.66 84.8816 193.82 84.7216 193.99 84.5516C194.13 84.5516 194.35 84.6016 194.43 84.5216C194.98 84.0116 195.49 83.4716 195.97 82.9916L195.91 82.0316C195.49 81.6716 195.09 81.3216 194.69 80.9716L193.76 81.0116C193.58 80.8616 193.41 80.7216 193.22 80.5716L192.32 80.6016C192.13 80.4616 191.96 80.3316 191.8 80.2116C191.57 80.4516 191.36 80.6616 191.16 80.8716L191.17 80.8916ZM248.9 61.1516C250.29 61.1016 251.69 61.0516 253.1 60.9916C253.15 60.9916 253.22 60.9016 253.25 60.8316C253.29 60.7216 253.21 60.5816 253.04 60.5616C252.74 60.5316 252.42 60.5716 252.13 60.5816C251.86 60.2516 251.53 60.0916 251.24 60.1116C250.74 59.7416 250.31 59.4216 249.92 59.1316L249.87 58.2016C249.62 57.9816 249.38 57.7816 249.15 57.5816L248.69 57.6016C248.51 57.4516 248.33 57.3116 248.18 57.1916L246.77 57.2416C246.55 57.4716 246.34 57.6916 246.13 57.9116L246.29 60.6116C246.5 60.7816 246.74 60.9716 247.02 61.1816C247.33 61.2016 247.71 61.2316 248.03 61.2516C248.19 61.3816 248.3 61.4916 248.43 61.6016C248.58 61.4516 248.74 61.3116 248.9 61.1516ZM235 40.2816C235.16 40.1216 235.32 39.9716 235.48 39.8116L235.93 39.7916C236.3 39.4016 236.66 39.0316 237.02 38.6516L236.99 38.2116C236.83 38.0616 236.66 37.9116 236.49 37.7516L236.47 37.3316C236.17 36.9616 235.52 37.2516 235.29 36.7116C234.62 36.7416 233.93 36.7516 233.24 36.7916C233.1 36.7916 232.96 36.8616 232.81 36.9016C232.62 37.1116 232.43 37.3316 232.28 37.4916L232.41 39.7316C232.98 39.8916 232.74 40.5316 233.15 40.7816L234.08 40.7516C234.23 40.6116 234.38 40.4516 234.54 40.2916L234.99 40.2716L235 40.2816ZM303.01 46.6216C302.55 47.0416 302.09 47.4116 301.81 47.8916C301.86 48.6816 301.89 49.4216 301.95 50.1616C301.95 50.3016 302.02 50.4316 302.06 50.5616C302.41 50.8616 302.75 51.1816 303.11 51.4616C303.21 51.5416 303.4 51.5116 303.58 51.5416C303.72 51.4116 303.89 51.2716 304.04 51.1216C304.15 51.0216 304.25 50.9016 304.35 50.7916C304.51 50.6316 304.67 50.4716 304.82 50.3016C304.96 50.1416 305.09 49.9716 305.2 49.8316C305.13 49.3516 305.23 48.9016 305.02 48.4816C304.787 48.2683 304.647 48.0183 304.6 47.7316C304.09 47.3416 303.75 46.7016 302.99 46.6116L303.01 46.6216ZM215.81 57.0316H216.18C216.89 56.2716 217.57 55.5716 218.25 54.8516L218.18 53.6416C217.74 53.2316 217.35 52.8716 216.98 52.5316L216.02 52.5716C215.65 52.9516 215.29 53.3316 214.92 53.7216L214.95 54.1516C214.8 54.3216 214.65 54.4816 214.52 54.6416L214.6 55.9716C215.02 56.3316 215.42 56.6816 215.83 57.0316H215.81ZM208.39 38.3816C208.62 38.5816 208.85 38.7816 209.09 38.9816C209.24 38.9816 209.39 39.0016 209.56 39.0116C209.71 38.8716 209.87 38.7216 210.05 38.5516L210.97 38.5216C211.47 37.9816 211.98 37.4316 212.52 36.8416L212.5 36.4816C212.09 36.1316 211.69 35.7816 211.25 35.4016L209.43 35.4716C208.94 36.0016 208.43 36.5516 207.88 37.1516V37.4916C208.04 37.6416 208.21 37.7916 208.38 37.9516L208.41 38.3916L208.39 38.3816ZM268.98 67.9716C269.66 67.2616 270.28 66.6116 270.9 65.9616C270.94 65.9116 270.94 65.8316 270.97 65.7416C270.94 65.4816 270.91 65.2016 270.9 65.0916C270.58 64.7516 270.38 64.5316 270.21 64.3616L267.36 64.4716C267.15 64.6916 266.95 64.9016 266.74 65.1216C266.74 65.2616 266.74 65.4016 266.72 65.5716C266.87 65.7116 267.03 65.8716 267.21 66.0416L267.28 67.3116C267.55 67.5816 267.78 67.8716 268.15 68.0116L268.98 67.9816V67.9716ZM335.14 68.1716L333.25 68.2416C333.05 68.4516 332.85 68.6716 332.64 68.9016C332.52 69.5316 332.8 70.1816 332.62 70.7916C332.5 70.9216 332.39 71.0316 332.29 71.1416C332.32 71.1916 332.34 71.2716 332.39 71.2916C332.71 71.4416 333.1 71.3916 333.39 71.7116C333.58 71.9216 333.83 71.8316 334.16 71.5516C334.27 71.4616 334.39 71.3916 334.49 71.3316C334.81 71.3016 335.11 71.2816 335.36 71.2516C335.58 70.9516 335.79 70.7816 336.15 70.7916C336.25 70.7916 336.34 70.6116 336.43 70.5316L336.36 69.2616C335.93 68.8716 335.53 68.5116 335.15 68.1716H335.14ZM327.34 51.2416C328.11 51.9116 328.86 52.5616 329.64 53.2316C329.81 53.2116 330.07 53.2916 330.21 53.0316C330.25 52.5316 330.3 52.0316 330.07 51.5516C329.95 51.4516 329.84 51.3516 329.71 51.2316L329.66 50.3416C329.07 49.8616 328.48 49.3716 327.83 48.8416C327.31 48.8616 326.69 48.8816 326.07 48.9116C326.01 48.9116 325.93 49.0016 325.91 49.0616C325.78 49.4116 325.83 49.7616 325.95 50.1016C326.19 50.3016 326.42 50.4916 326.64 50.6616C327.067 50.6816 327.303 50.8716 327.35 51.2316L327.34 51.2416ZM347.37 61.0316C347.55 61.1816 347.72 61.3216 347.89 61.4516C348.06 61.4516 348.21 61.4516 348.36 61.4516C348.73 61.7116 348.54 62.3216 349.07 62.4916C349.08 62.5616 349.1 62.6316 349.11 62.7016C349.17 63.0216 349.27 63.1716 349.46 63.1716C349.76 63.1716 350.06 63.1416 350.32 63.1316C350.46 62.9816 350.55 62.8016 350.67 62.7816C351.23 62.6916 351.59 62.3716 351.86 61.9516L351.81 61.0716C351.56 60.8616 351.33 60.6616 351.09 60.4516L347.85 60.5716C347.67 60.4316 347.5 60.2916 347.31 60.1416L346.4 60.1716C346.18 60.465 346.193 60.7583 346.44 61.0516L347.36 61.0216L347.37 61.0316ZM160.82 91.2216C161.34 91.7616 161.71 92.1316 162 92.4416C162.29 92.4616 162.43 92.4716 162.56 92.4816C162.76 92.6216 162.94 92.7516 163.09 92.8616C163.59 92.8216 164.05 92.8816 164.41 92.7716C164.69 92.5216 164.91 92.3116 165.09 92.1416L165.04 91.2216C164.63 90.8616 164.22 90.5116 163.81 90.1616C162.89 90.1916 161.96 90.2216 161.03 90.2816C160.94 90.2816 160.81 90.4816 160.8 90.6016C160.77 90.8216 160.81 91.0416 160.82 91.2316V91.2216ZM186.98 79.4916L188.5 79.4316C188.68 79.5816 188.85 79.7216 189.01 79.8516L189.94 79.8116C190.3 79.5216 190.02 78.9116 190.56 78.7116L190.51 77.8116C190.01 77.4416 189.67 76.8016 188.91 76.7016C188.73 76.8716 188.56 77.0116 188.39 77.1716C188.26 77.1816 188.11 77.2016 187.94 77.2216C187.79 77.3616 187.63 77.5116 187.47 77.6716C187.27 77.7216 187.01 77.6116 186.86 77.8516C186.75 78.3416 186.79 78.8416 186.99 79.4816L186.98 79.4916ZM176.69 81.8816L176.64 81.0016C176.47 80.8416 176.19 80.7016 176.17 80.5416C176.06 79.9516 176.09 79.9416 175.44 79.9216C175.28 79.7916 175.1 79.6516 174.9 79.5016C174.56 79.8816 174.21 80.2716 173.84 80.6916C173.84 80.7716 173.84 80.9116 173.84 81.0716C173.7 81.2316 173.55 81.3916 173.4 81.5616L173.45 82.4416C173.86 82.7916 174.26 83.1416 174.67 83.4916C174.83 83.3416 174.99 83.1916 175.15 83.0416L175.6 83.0216C175.97 82.6316 176.34 82.2516 176.7 81.8716L176.69 81.8816ZM333.18 78.6916C333.44 78.9216 333.66 79.2416 334.04 79.3516C334.49 79.3016 334.96 79.3916 335.41 79.2116C335.6 79.0016 335.79 78.7816 335.95 78.6116L335.87 77.2516C335.48 77.0416 335.36 76.7116 335.32 76.4416C335.06 76.1716 334.85 75.9516 334.62 75.7216C334.26 75.9116 333.81 75.6316 333.5 76.0216L333.55 76.8716C333.4 77.0516 333.26 77.2116 333.1 77.4016L333.18 78.7016V78.6916ZM223.45 67.4416C223.63 67.5916 223.8 67.7316 223.96 67.8616L225.36 67.8116C225.57 67.5916 225.78 67.3716 226 67.1416L225.95 66.2616C225.55 65.8916 225.16 65.4416 224.64 65.1716C224.15 65.2216 223.69 65.1416 223.76 65.1216C222.97 65.7416 222.56 66.0616 222.21 66.3416C222.26 66.6016 222.28 66.7416 222.31 66.8616C222.54 67.0716 222.77 67.2716 222.99 67.4716L223.46 67.4516L223.45 67.4416ZM276.64 50.5616C276.37 50.3316 276.16 50.0116 275.77 49.9016L274.95 49.9316C274.65 50.3316 274.15 50.6616 273.86 51.1716C273.98 51.6516 273.68 52.2116 274.17 52.6316L274.62 52.6116C274.8 52.7616 274.98 52.9016 275.15 53.0416L275.61 53.0216C275.98 52.6416 276.34 52.2616 276.71 51.8816L276.63 50.5616H276.64ZM148.24 84.6416C148.33 84.7516 148.42 84.8716 148.52 84.9716C148.98 85.3716 149.44 85.7716 149.9 86.1616C149.95 86.2016 150.03 86.2016 150.1 86.2216C150.64 86.2016 151.18 86.1916 151.72 86.1516C151.84 86.1516 151.95 86.0016 152.06 85.9216L152.03 85.4916C151.86 85.3316 151.69 85.1816 151.54 85.0416C151.52 84.8816 151.51 84.7416 151.49 84.6016C151.26 84.4016 151.03 84.2016 150.8 84.0016C150.65 84.0016 150.5 84.0016 150.33 84.0016C150.16 83.8716 149.99 83.7316 149.8 83.5816L149.35 83.6016C149.2 83.7516 149.04 83.9016 148.88 84.0616L148.43 84.0816C148.38 84.1416 148.3 84.1816 148.28 84.2516C148.25 84.3816 148.25 84.5316 148.23 84.6616L148.24 84.6416ZM157.93 69.8916C158.44 69.8216 158.99 69.9916 159.56 69.6516C159.5 68.9216 159.48 68.1316 159.41 67.3816C159.16 67.1616 158.93 66.9616 158.69 66.7616L158.23 66.7816C158.09 66.9216 157.93 67.0716 157.77 67.2316C157.57 67.2716 157.31 67.1616 157.12 67.4816C157.09 68.0416 157.14 68.6716 157.23 69.2916C157.48 69.5016 157.71 69.7016 157.94 69.9016L157.93 69.8916ZM203.55 63.7316C203.37 63.5816 203.19 63.4416 203.04 63.3116L202.11 63.3516C201.89 63.5716 201.69 63.7916 201.47 64.0216C201.63 64.1716 201.78 64.3216 201.95 64.4716L201.97 64.8916C202.38 65.2416 202.78 65.5916 203.2 65.9516C203.7 65.9416 204.24 66.0516 204.74 65.8016C204.77 65.7416 204.83 65.6816 204.83 65.6216C204.81 65.1916 204.79 64.7516 204.76 64.3716C204.48 64.1216 204.25 63.9216 204.02 63.7216L203.56 63.7416L203.55 63.7316ZM223.83 40.7016L222.86 40.7416C222.34 41.2816 221.82 41.8216 221.31 42.3616C221.47 42.5016 221.63 42.6616 221.79 42.8016C221.82 43.0216 221.75 43.2616 222.02 43.4016C222.08 43.4116 222.15 43.4416 222.23 43.4416C222.69 43.4316 223.16 43.4016 223.62 43.4016C223.87 43.4016 224.07 43.3316 224.15 43.1116C224.2 42.9816 224.15 42.8316 224.16 42.7016C224.31 42.5216 224.45 42.3616 224.57 42.2116C224.57 42.1116 224.57 42.0416 224.55 41.9616C224.53 41.7116 224.26 41.6416 224.15 41.4616C224.01 41.2316 223.93 40.9616 223.83 40.7216V40.7016ZM285.52 70.0216L284.15 70.0716C283.91 70.3316 283.58 70.5316 283.46 70.8816C283.58 71.3516 283.27 71.9016 283.77 72.3116L285.6 72.2416C285.87 72.0116 286.15 71.7916 286.28 71.5116L286.23 70.6416C285.97 70.4216 285.75 70.2216 285.52 70.0216ZM341.93 89.3516C341.62 89.0316 341.31 88.7116 341.06 88.4516C340.8 88.4516 340.65 88.4416 340.52 88.4316C340.33 88.2916 340.15 88.1516 339.95 88.0016C339.75 88.0716 339.55 88.1416 339.36 88.2116L339.41 89.1416C339.56 89.4616 339.9 89.3516 340.13 89.4016C340.34 89.5516 340.52 89.6816 340.71 89.8216L341.58 89.7916C341.97 90.0816 342.23 90.4616 342.68 90.6116C343.23 90.6316 343.37 90.1816 343.63 89.8716C343.08 89.7116 343.32 89.0816 342.91 88.8316L342.45 88.8516C342.31 88.9916 342.15 89.1516 341.94 89.3616L341.93 89.3516ZM160.54 86.5016C160.51 86.0516 160.49 85.6116 160.46 85.1616C160.46 85.1116 160.35 85.0616 160.26 85.0016C159.84 84.9016 159.38 85.0016 158.92 85.0016C158.86 85.0016 158.79 85.0616 158.73 85.0816C158.63 85.1916 158.53 85.3916 158.42 85.3916C157.89 85.4016 157.63 85.7516 157.34 86.0716C157.31 86.1016 157.3 86.1916 157.32 86.2216C157.36 86.2816 157.43 86.3616 157.49 86.3716C157.64 86.3916 157.8 86.3716 157.95 86.3716C158.13 86.5216 158.31 86.6616 158.48 86.8016C158.65 86.8016 158.8 86.8016 158.94 86.8016C159.13 86.9416 159.31 87.0816 159.47 87.2116C159.64 87.1916 159.83 87.2116 159.93 87.1416C160.16 86.9516 160.36 86.7216 160.56 86.5116L160.54 86.5016ZM178.88 71.1116C179.32 71.3316 180.25 71.3716 180.64 71.1716C180.82 70.9616 181.02 70.7516 181.17 70.5816L181.09 69.2616C180.82 69.0016 180.6 68.7916 180.4 68.6116L179.9 68.6316C179.69 68.8516 179.48 69.0716 179.27 69.2916C179.27 69.4416 179.27 69.5816 179.27 69.7416C179.13 69.9016 178.98 70.0616 178.83 70.2316L178.88 71.1116ZM282.48 62.0816L282.44 61.4616C282.27 61.3116 282.11 61.1516 281.94 61.0016L281.89 60.1316C281.65 59.9216 281.42 59.7216 281.17 59.5116L280.25 59.5416C279.83 59.9216 279.623 60.1716 279.63 60.2916C279.92 60.5416 280.21 60.7916 280.5 61.0416C280.52 61.1816 280.54 61.3216 280.57 61.5116C280.83 61.7116 281.04 62.0316 281.32 62.1316L282.48 62.0916V62.0816ZM314.71 75.9616C315.27 76.0616 315.85 76.1016 316.44 75.9116C316.77 75.5216 317.21 75.2016 317.45 74.7516C317.51 74.1816 316.94 74.0716 316.65 73.7616C316.5 73.7716 316.35 73.7916 316.15 73.8016C316.01 74.1716 315.66 74.2616 315.29 74.2916C315.06 74.5216 314.85 74.7316 314.65 74.9416L314.71 75.9616ZM248.03 38.9416C247.98 39.0216 247.85 39.1416 247.85 39.2616C247.85 39.4916 247.76 39.6516 247.63 39.8316C247.31 40.2616 247.31 40.2916 247.73 40.7216C247.84 40.8416 247.96 40.9316 247.94 41.0816C247.92 41.2416 247.96 41.3716 248.08 41.4716C248.2 41.5716 248.33 41.5816 248.5 41.5716C248.88 41.5416 249.26 41.5416 249.6 41.5216C249.84 41.2716 250.04 41.0616 250.24 40.8516C249.5 40.2116 248.76 39.5716 248.02 38.9416H248.03ZM295.75 37.0816C296.1 36.7116 296.45 36.3416 296.87 35.9116L296.82 35.0816C296.62 34.8716 296.37 34.6116 296.04 34.4316C295.89 34.4516 295.69 34.4316 295.6 34.5016C295.21 34.8516 294.86 35.2216 294.53 35.5416L294.56 36.0516C294.97 36.4016 295.37 36.7516 295.75 37.0816ZM200.81 81.2016C201.01 80.9916 201.22 80.7716 201.47 80.5116C201.45 80.1316 201.44 79.7016 201.39 79.2816C201.38 79.1716 201.22 79.0716 201.13 78.9616C200.83 78.9716 200.52 78.9816 200.21 78.9916C200 79.2016 199.8 79.4216 199.55 79.6816C199.57 80.0616 199.58 80.4916 199.63 80.9116C199.65 81.0216 199.8 81.1216 199.89 81.2316C200.2 81.2216 200.5 81.2116 200.81 81.2016ZM306.82 57.2016L305.88 57.2416C305.67 57.4616 305.47 57.6716 305.26 57.9016C305.58 58.3116 306.02 58.6016 306.42 58.9816C306.63 58.9816 306.85 58.9916 307.08 58.9816C307.5 58.9816 307.62 58.8416 307.6 58.4616C307.59 58.2416 307.58 58.0316 307.56 57.8516C307.28 57.6116 307.05 57.4116 306.82 57.2116V57.2016ZM263.45 64.7916C263.45 64.9316 263.4 65.0816 263.45 65.2016C263.49 65.3216 263.64 65.4816 263.73 65.4816C264.49 65.4816 265.25 65.4416 266.01 65.4016C266.07 65.4016 266.13 65.3216 266.16 65.2616C266.19 65.2216 266.19 65.1416 266.16 65.1116C265.77 64.7616 265.38 64.4316 265.01 64.1116L264.06 64.1516C263.85 64.3716 263.65 64.5816 263.44 64.7916H263.45ZM174.17 86.8816L174.12 85.9716C173.9 85.7916 173.68 85.5716 173.42 85.4016C173.31 85.3316 173.13 85.3716 172.93 85.3616C172.74 85.5516 172.52 85.7416 172.34 85.9716C172.26 86.0716 172.28 86.2316 172.24 86.4916C172.66 86.7916 173.02 87.2416 173.54 87.5416C173.75 87.3216 173.96 87.1016 174.17 86.8816ZM233.31 31.2016C233.31 31.2516 233.41 31.3016 233.47 31.3516C233.9 31.3916 234.37 31.5816 234.71 31.1516C234.56 28.6116 233.14 29.1416 233.31 31.2016ZM257.22 60.3516C256.78 60.5216 256.22 60.2616 255.71 60.6016C255.71 60.7716 255.65 61.0316 255.76 61.1516C256.11 61.5316 256.52 61.8516 256.91 62.2016C257.13 61.9716 257.34 61.7616 257.54 61.5416C257.52 61.1416 257.76 60.6916 257.23 60.3516H257.22ZM281.24 44.7916L281.72 44.7716C281.88 44.4816 282.33 44.3316 282.34 43.9616C282.34 43.6316 282.53 43.4516 282.71 43.2416C282.78 43.1616 282.68 42.9916 282.51 42.9716C282.21 42.9416 281.91 42.9816 281.6 42.9916C281.39 43.2716 281.03 43.4516 280.93 43.8516C281.03 44.1416 280.83 44.5416 281.24 44.7916ZM314.84 78.0516C314.81 77.6216 314.8 77.1816 314.76 76.7516C314.76 76.7016 314.67 76.6416 314.61 76.6016C314.57 76.5816 314.48 76.5716 314.45 76.6016C314.23 76.7916 314.02 77.0016 313.85 77.1616L313.96 79.0316C313.82 79.1516 313.66 79.2916 313.49 79.4416C314.08 79.7716 313.9 79.8016 314.45 79.4116C314.43 79.1216 314.42 78.8316 314.4 78.5416C314.55 78.3816 314.69 78.2216 314.84 78.0616V78.0516ZM287.62 53.6916C287.39 53.4916 287.16 53.3016 286.93 53.0916C286.84 53.1716 286.67 53.2516 286.68 53.3316C286.68 53.9116 286.73 54.4916 286.77 55.0616C287.29 55.3616 287.29 55.3616 287.71 54.9916L287.63 53.6816L287.62 53.6916ZM290.49 74.7416L291.85 74.6916C292.16 74.5116 292.15 74.2516 292.04 73.9716C291.82 73.7816 291.59 73.5816 291.36 73.3816C291.21 73.5316 291.06 73.6816 290.9 73.8316L290.44 73.8516C290.11 74.1616 290.14 74.4516 290.49 74.7416ZM275.46 66.3916L274.39 66.4316C274.39 66.8716 274.1 67.3116 274.59 67.7516L275.17 67.7316C275.29 67.5816 275.5 67.3716 275.65 67.1216C275.82 66.8516 275.74 66.5816 275.46 66.3916ZM289.29 62.3116C289.54 62.0916 289.59 61.8216 289.39 61.5716C289.21 61.3416 288.98 61.1416 288.82 60.9816C288.49 61.0216 288.24 60.9416 288.1 61.1916C288.12 61.5816 287.87 62.0416 288.37 62.3416C288.67 62.3316 288.98 62.3216 289.28 62.3016L289.29 62.3116ZM288.75 38.7216L289.78 38.6816C289.973 38.3816 289.96 38.085 289.74 37.7916L289.28 37.8116C289.11 37.6716 288.94 37.5316 288.67 37.3116C288.55 37.7716 288.52 38.1616 288.75 38.7216ZM199.13 45.6416C199.46 45.3416 199.67 45.1416 199.98 44.8516C199.45 44.7116 199.04 44.6816 198.69 44.8016C198.43 45.0516 198.22 45.2416 198.01 45.4316C198.33 45.8116 198.73 45.5816 199.13 45.6316V45.6416ZM326.09 77.9716C326.11 78.2783 326.177 78.515 326.29 78.6816C326.65 78.7616 327.01 78.7616 327.36 78.6316C327.42 78.6116 327.47 78.5316 327.53 78.4616C327.46 78.2716 327.6 78.0216 327.31 77.8816C326.96 77.7916 326.6 77.8116 326.08 77.9716H326.09ZM279.84 49.0816C280.17 49.3916 280.48 49.3816 280.78 49.0416L280.75 48.5716C280.6 48.4516 280.41 48.3216 280.25 48.1616C280.11 48.0216 280.02 47.9716 279.92 48.0516C279.79 48.1516 279.77 48.2716 279.8 48.4316C279.84 48.6416 279.83 48.8616 279.84 49.0816ZM359.06 80.4216L359.03 79.9916C358.56 79.6816 358.55 79.6816 358.09 80.0116L358.12 80.4416C358.433 80.635 358.747 80.6283 359.06 80.4216ZM229.53 62.9816L229.5 62.5516C229.03 62.2416 229.02 62.2416 228.56 62.5716L228.59 63.0016C229.06 63.3116 229.07 63.3116 229.53 62.9816ZM152.92 72.7416C152.65 73.0516 152.63 73.3416 152.98 73.6316C153.03 73.5816 153.08 73.5316 153.13 73.4816C153.18 73.4316 153.24 73.3816 153.28 73.3216C153.37 73.1716 153.67 73.0916 153.55 72.8616C153.42 72.6216 153.15 72.7616 152.92 72.7416ZM340.94 59.2716C340.61 58.9616 340.3 58.9716 340 59.3116C340.33 59.6216 340.64 59.6016 340.94 59.2716ZM289.04 45.8416C288.96 45.8416 288.88 45.8216 288.82 45.8516C288.66 45.9316 288.6 46.0516 288.66 46.1416C288.7 46.2016 288.76 46.2616 288.83 46.2816C288.9 46.3016 288.98 46.2816 289.05 46.2816C289.34 46.2716 289.52 46.1216 289.43 45.9716C289.34 45.8216 289.21 45.7716 289.04 45.8316V45.8416ZM172.15 322.512L170.99 322.552C170.83 322.702 170.67 322.862 170.52 323.012C170.3 323.042 170.04 322.952 169.85 323.302C169.88 323.922 169.92 324.652 169.98 325.382C169.98 325.492 170.15 325.592 170.24 325.692L170.69 325.672C170.9 325.452 171.11 325.232 171.33 325.002L171.27 324.052C171.56 323.802 171.9 323.512 172.18 323.282C172.16 322.952 172.15 322.732 171.64 321.852C171.79 321.982 171.96 322.132 172.12 322.292C172.16 322.332 172.1 322.462 172.15 322.502C172.19 322.542 172.3 322.502 172.38 322.502C172.59 322.282 172.79 322.072 173.04 321.802C173.03 321.552 173.04 321.262 172.98 320.982C172.96 320.872 172.77 320.712 172.67 320.722C172.31 320.752 171.88 320.592 171.59 320.952C171.61 321.242 171.62 321.532 172.14 322.502L172.15 322.512ZM165.17 376.742C164.91 377.012 164.65 377.282 164.37 377.582L163.48 377.612C163.31 377.772 163.15 377.922 162.95 378.102C162.68 378.102 162.37 378.102 162.07 378.142C161.9 378.172 161.83 378.322 161.89 378.422C161.92 378.482 162 378.522 162.06 378.572L162.52 378.552C162.7 378.702 162.87 378.842 163.04 378.982C163.2 378.982 163.36 378.982 163.42 378.982C164.06 379.512 164.65 379.992 165.21 380.452C165.32 380.982 165.08 381.512 165.5 381.982L168.37 381.872C168.65 381.482 169.18 381.162 169.46 380.572C169.31 380.202 169.49 379.752 169.28 379.332C169.16 379.232 169.05 379.132 168.92 379.022C168.86 378.682 168.8 378.332 168.74 378.022C168.59 377.892 168.48 377.792 168.36 377.692C168.23 377.082 168.22 377.062 167.56 376.972C167.36 376.822 167.18 376.702 167 376.572C166.37 376.672 165.75 376.572 165.16 376.722L165.17 376.742ZM187.52 244.422C187.06 244.442 186.6 244.452 186.13 244.482C186.07 244.482 186.02 244.582 185.9 244.702L185.97 245.932C185.99 246.302 186.02 246.672 186.03 247.032C186.03 247.462 186.15 247.902 186.03 248.332C185.92 248.442 185.82 248.552 185.72 248.662C185.64 249.162 185.64 249.662 185.83 250.142C186.25 250.462 186.59 250.882 187.1 251.142C187.37 251.102 187.67 251.072 187.97 251.032C188.19 250.492 188.96 250.732 189.23 250.212C189.39 249.902 189.69 249.652 189.92 249.372C189.83 249.032 190.1 248.862 190.26 248.622C190.37 248.462 190.35 248.222 190.4 248.022C190.45 247.852 190.8 247.812 190.64 247.552C190.52 247.442 190.4 247.342 190.27 247.232L190.22 246.342C189.64 245.862 189.05 245.382 188.41 244.852C188.36 244.852 188.2 244.852 188.03 244.852C187.86 244.712 187.69 244.572 187.51 244.422H187.52ZM187.87 284.502L190.79 284.392C190.95 284.232 191.11 284.072 191.28 283.912L193.6 283.822C193.77 283.302 194.43 283.502 194.7 283.132L194.65 282.212C194.44 282.042 194.2 281.852 193.93 281.652C193.57 281.672 193.24 281.522 192.99 281.212C192.84 281.212 192.69 281.212 192.52 281.212C192.35 281.072 192.18 280.932 191.99 280.792L191.54 280.812C191.36 280.662 191.18 280.522 191.01 280.382C190.84 280.402 190.69 280.412 190.56 280.422C190.39 280.582 190.22 280.732 190.05 280.882L189.3 280.912C188.81 281.352 188.42 281.702 188.09 281.992C188.09 282.242 188.07 282.392 188.07 282.512C187.92 282.692 187.79 282.862 187.67 283.012C187.72 283.482 187.67 283.932 187.88 284.512L187.87 284.502ZM188.1 338.632L188.12 338.962C188.93 339.662 189.68 340.312 190.48 341.002C190.62 340.952 190.83 340.892 191.03 340.822L190.98 339.862C190.84 339.732 190.68 339.582 190.5 339.412L190.45 338.542C190.28 338.382 190.12 338.232 189.94 338.072L189.91 337.642C189.57 337.422 189.34 337.152 189.35 336.752C189.12 336.542 188.89 336.342 188.66 336.142L187.72 336.182C187.49 335.982 187.26 335.782 187 335.562L186.95 334.712C186.78 334.552 186.62 334.392 186.44 334.222L186.42 333.812C186.19 333.532 185.91 333.502 185.62 333.672C185.5 333.742 185.41 333.972 185.31 333.972C184.68 333.992 184.42 334.432 184.13 334.842C184.16 335.512 184.17 335.512 184.42 335.852L184.88 335.832C185.06 335.982 185.24 336.122 185.42 336.272L185.85 336.252C186.05 336.402 186.22 336.542 186.37 336.652C186.72 336.652 187.03 336.652 187.33 336.682C187.39 336.682 187.44 336.772 187.52 336.842L187.6 338.152C187.77 338.312 187.94 338.462 188.11 338.622L188.1 338.632ZM196.24 232.022C196.67 231.572 197.09 231.142 197.49 230.702C197.59 230.602 197.65 230.472 197.72 230.352C197.71 230.132 197.72 229.902 197.67 229.692C197.59 229.352 197.07 229.232 197.14 228.782C197.15 228.692 196.96 228.572 196.87 228.452C196.62 228.142 196.27 228.032 195.88 228.022C195.61 227.702 195.27 227.592 194.86 227.672C194.72 227.702 194.57 227.732 194.43 227.772C194.09 228.162 193.67 228.482 193.41 228.932C193.45 229.602 193.49 230.262 193.53 230.932C193.53 231.002 193.58 231.062 193.64 231.222C194.32 231.172 193.82 231.982 194.35 232.162L194.76 232.142C194.95 232.282 195.12 232.412 195.34 232.582C195.47 232.112 195.88 232.112 196.23 232.032L196.24 232.022ZM252.46 360.492L253.87 360.442C254.07 360.232 254.27 360.012 254.48 359.792C254.44 359.412 254.6 359.112 254.92 358.882C254.92 358.742 254.92 358.592 254.92 358.432C255.05 358.282 255.2 358.112 255.35 357.942C255.28 357.612 255.46 357.232 255.14 356.892C254.79 356.872 254.43 356.842 254.08 356.822C253.95 356.712 253.83 356.612 253.71 356.502C253.42 356.402 253.12 356.462 252.82 356.482C252.29 356.512 251.75 356.452 251.34 356.572C251.05 356.832 250.82 357.032 250.64 357.202L250.74 358.992C251.33 359.512 251.9 360.012 252.46 360.502V360.492ZM184.96 297.082L182.15 297.182C181.97 297.392 181.77 297.612 181.56 297.852C181.58 298.192 181.45 298.512 181.09 298.762C181.37 298.992 181.57 299.302 181.93 299.412C182.48 299.392 183.03 299.372 183.57 299.352C183.64 299.352 183.71 299.392 183.78 299.412C183.9 299.512 184.01 299.612 184.13 299.712C184.53 299.902 185.04 299.532 185.41 299.972C185.7 300.312 186.34 300.062 186.57 300.572C186.73 300.422 186.89 300.272 187.04 300.122L187.5 300.102C187.7 299.892 187.9 299.672 188.11 299.452C188.09 299.402 188.07 299.342 188.03 299.302C187.34 298.702 186.65 298.102 185.94 297.492L185.49 297.512C185.31 297.362 185.13 297.222 184.96 297.082ZM201.67 205.582C202.03 205.202 202.39 204.822 202.76 204.432L202.74 204.002C202.89 203.832 203.04 203.672 203.19 203.502L203.14 202.632C202.97 202.472 202.8 202.322 202.65 202.172C202.63 202.012 202.62 201.872 202.6 201.752C202.19 201.382 201.79 201.032 201.39 200.682L200.92 200.702C200.56 201.082 200.19 201.462 199.82 201.852L199.85 202.272C199.7 202.442 199.55 202.612 199.4 202.772L199.45 203.642C199.3 203.812 199.15 203.972 199.01 204.132C199.03 204.292 199.05 204.432 199.06 204.542C199.48 204.912 199.88 205.272 200.27 205.622C200.75 205.602 201.22 205.582 201.68 205.572L201.67 205.582ZM233.87 363.422C234.23 363.042 234.59 362.672 234.96 362.282L234.86 360.532C234.55 360.142 234.17 359.822 233.59 359.792C233.47 359.792 233.36 359.602 233.21 359.482C232.56 359.452 231.89 359.482 231.38 359.542C231.04 359.832 230.82 360.022 230.64 360.172L230.72 361.542C230.9 361.712 231.06 361.862 231.2 362.002C231.23 362.162 231.24 362.312 231.26 362.452C231.49 362.652 231.72 362.852 231.96 363.052L232.41 363.032C232.59 363.182 232.77 363.322 232.94 363.462L233.87 363.432V363.422ZM294.34 210.142L292.96 210.192C292.78 210.052 292.61 209.912 292.43 209.772C291.65 209.802 290.88 209.822 290.11 209.862C290.05 209.862 290 209.962 289.95 210.022C289.85 210.452 289.95 210.882 289.97 211.312C289.97 211.422 290.14 211.522 290.24 211.632L291.14 211.602C291.33 211.752 291.51 211.892 291.66 212.012L293.04 211.962C293.23 211.792 293.39 211.642 293.51 211.532L295.85 211.442C295.99 211.562 296.1 211.672 296.22 211.752C296.38 211.872 296.75 211.872 296.85 211.772C297.21 211.402 297.57 211.022 297.94 210.632C297.86 210.422 297.79 210.222 297.72 210.032L295.78 210.102C295.65 210.222 295.49 210.372 295.32 210.532C295.18 210.542 295.03 210.552 294.87 210.572C294.7 210.432 294.52 210.292 294.35 210.142H294.34ZM196.74 491.292C197.01 491.102 197.17 490.912 197.37 490.872C197.61 490.832 197.76 490.702 197.95 490.602C198.49 490.312 198.17 489.602 198.69 489.322C198.71 489.322 198.7 489.182 198.69 489.172C198.14 488.932 198.38 488.182 197.8 487.962C197.67 487.912 197.55 487.812 197.42 487.732C196.96 487.772 196.5 487.712 196.05 487.852C195.43 488.502 194.8 489.162 194.18 489.812C194.18 489.952 194.16 490.092 194.15 490.262C194.3 490.402 194.45 490.562 194.62 490.732C194.62 490.782 194.64 490.852 194.66 490.922C194.72 491.232 194.84 491.402 195.02 491.392C195.63 491.342 196.26 491.412 196.75 491.302L196.74 491.292ZM250.35 348.552C250.52 348.692 250.69 348.832 250.86 348.972C251.23 348.592 251.59 348.212 251.95 347.832L251.87 346.462C251.49 346.162 251.08 345.842 250.59 345.452C250.02 345.432 249.35 345.452 248.95 345.502C248.38 345.992 247.98 346.322 247.66 346.592C247.67 346.792 247.67 346.872 247.68 346.942C247.7 347.192 247.97 347.262 248.08 347.442C248.22 347.672 248.3 347.942 248.4 348.182L248.91 348.162C249.09 348.302 249.26 348.452 249.43 348.592L250.34 348.562L250.35 348.552ZM184.53 349.882L184.64 351.672C184.87 351.862 185.1 352.062 185.37 352.282L186.28 352.252C186.62 352.042 186.85 351.652 187.19 351.372C187.46 351.152 187.36 350.852 187.46 350.612C187.57 350.492 187.67 350.392 187.84 350.212C187.8 349.552 187.77 348.832 187.71 348.112C187.71 347.992 187.55 347.892 187.46 347.782L187 347.802C186.84 347.962 186.68 348.112 186.52 348.272L186.11 348.292C185.56 348.852 185.04 349.382 184.53 349.902V349.882ZM202.1 232.972L202.13 233.412C202.36 233.612 202.59 233.802 202.85 234.032L203.79 233.992C203.91 233.882 204.07 233.732 204.24 233.572C204.37 233.562 204.53 233.542 204.83 233.522C204.95 233.372 205.16 233.162 205.3 232.912C205.4 232.742 205.37 232.502 205.45 232.322C205.5 232.192 205.65 232.102 205.77 231.972C205.77 231.782 205.77 231.562 205.77 231.352C205.75 230.962 205.61 230.842 205.22 230.852C204.22 230.892 203.21 230.932 202.23 230.962C202 231.202 201.79 231.422 201.58 231.642L201.63 232.532C201.78 232.672 201.94 232.822 202.11 232.982L202.1 232.972ZM173.62 395.742C173.78 395.892 173.95 396.042 174.12 396.192L174.14 396.622C174.38 396.832 174.61 397.032 174.86 397.242L176.74 397.172C176.95 396.952 177.26 396.742 177.38 396.472L177.33 395.572C176.92 395.372 176.83 395.022 176.81 394.922C176.31 394.382 175.95 394.002 175.64 393.662C175.39 393.692 175.13 393.672 175.11 393.742C174.92 394.242 174.27 394.022 174.01 394.392C174.01 394.472 174.01 394.542 174.01 394.612C174.01 394.832 174.04 395.052 174.05 395.282C173.91 395.442 173.76 395.602 173.61 395.762L173.62 395.742ZM181.85 336.672C181.76 336.442 181.49 336.212 181.23 336.082C180.91 335.922 180.51 335.972 180.24 335.652C180.18 335.572 179.96 335.592 179.82 335.602C179.6 335.602 179.38 335.642 179.2 335.662C178.85 336.072 178.42 336.372 178.19 336.812C178.42 337.012 178.65 337.172 178.67 337.522C178.69 337.862 179.27 337.982 179.18 338.422C179.36 338.752 179.68 338.942 179.94 339.132C180.44 339.112 180.9 339.102 181.36 339.072C181.41 339.072 181.46 338.972 181.51 338.922C181.52 338.572 181.54 338.222 181.55 337.932C181.71 337.772 181.81 337.662 181.92 337.542C181.9 337.272 181.96 336.952 181.85 336.682V336.672ZM169.02 303.852C169.42 303.462 169.42 303.462 169.76 303.442C170.07 303.432 170.38 303.422 170.68 303.402C170.75 303.402 170.81 303.352 170.66 303.412C171.05 303.082 171.28 302.892 171.45 302.752L171.37 301.372C171.13 301.162 170.9 300.962 170.67 300.762C170.52 300.762 170.37 300.762 170.2 300.752C170.05 300.892 169.89 301.052 169.72 301.212L167.88 301.282C167.72 301.432 167.57 301.592 167.4 301.752C167.34 301.752 167.26 301.772 167.19 301.752C167.01 301.722 166.88 301.762 166.8 301.912C166.75 302.012 166.83 302.102 166.98 302.222C167.22 302.412 167.44 302.612 167.68 302.822C167.73 303.162 167.72 303.572 168.29 303.492C168.61 303.452 168.7 303.872 169.01 303.842L169.02 303.852ZM193.29 271.822C194 271.102 194.67 270.412 195.33 269.732L195.25 268.412C194.83 268.202 193.93 268.162 193.53 268.332C193.43 268.442 193.32 268.542 193.22 268.652C193.01 268.712 192.75 268.712 192.61 268.832C192.24 269.182 191.85 269.522 191.58 269.962C191.58 270.192 191.6 270.402 191.83 270.532C192.14 270.702 192.07 271.022 192.14 271.172C192.43 271.452 192.65 271.662 192.83 271.842L193.27 271.822H193.29ZM179.66 398.852L181.5 398.782C181.87 398.402 182.23 398.022 182.62 397.602C182.59 397.062 182.56 396.482 182.51 395.892C182.51 395.832 182.42 395.782 182.29 395.622C181.85 395.682 181.33 395.612 180.81 395.732C180.62 396.082 180.26 396.172 180.02 396.212C179.71 396.472 179.48 396.662 179.29 396.822C179.29 397.032 179.29 397.182 179.29 397.302C179.15 397.472 179.02 397.622 178.92 397.762C179.09 397.952 179.29 398.102 179.36 398.292C179.43 398.502 179.43 398.712 179.65 398.842L179.66 398.852ZM241.34 346.662L239.95 346.712C239.77 346.562 239.59 346.422 239.42 346.282C239.06 346.372 238.63 346.152 238.31 346.532L238.41 348.292C238.61 348.552 238.87 348.802 239.22 348.962C240.08 348.932 240.93 348.902 241.79 348.862C241.86 348.862 241.93 348.822 241.91 348.822C242.18 348.572 242.4 348.362 242.59 348.192L242.56 347.712C242.14 347.352 241.74 347.002 241.33 346.652L241.34 346.662ZM257.47 363.872L256.89 363.892C256.71 363.742 256.54 363.602 256.36 363.462L255.93 363.482C255.73 363.332 255.56 363.192 255.39 363.062C254.86 363.162 254.28 362.902 253.82 363.332L253.87 364.222C254 364.352 254.17 364.502 254.34 364.672L254.37 365.122C254.59 365.302 254.83 365.482 255.14 365.732C255.48 365.632 255.77 365.852 256.04 366.142L257.01 366.102C257.21 365.872 257.54 365.682 257.67 365.332C257.62 364.892 257.67 364.452 257.47 363.872ZM264.23 192.552C264.39 192.392 264.55 192.242 264.7 192.092C264.87 192.082 265.02 192.062 265.17 192.052C265.38 191.832 265.59 191.622 265.8 191.392L265.75 190.502C265.6 190.362 265.43 190.212 265.27 190.052C265.23 189.852 265.34 189.602 265.01 189.442C264.38 189.412 263.7 189.432 263.07 189.522C262.83 189.792 262.63 190.002 262.44 190.222C262.5 190.832 262.55 191.412 262.61 191.992C262.61 192.042 262.72 192.092 262.78 192.142C262.93 192.142 263.09 192.142 263.25 192.142C263.42 192.282 263.59 192.422 263.77 192.562L264.22 192.542L264.23 192.552ZM269.4 341.392C269.79 341.712 270.2 342.042 270.66 342.412C270.73 342.412 270.88 342.422 271.05 342.442C271.2 342.312 271.36 342.162 271.53 342.002C271.58 342.002 271.65 341.962 271.72 341.972C271.98 342.002 272.2 341.872 272.21 341.652C272.23 341.222 272.17 340.782 272.15 340.432C271.94 340.202 271.74 340.062 271.66 339.882C271.59 339.682 271.62 339.452 271.37 339.322L270.93 339.342C270.75 339.192 270.58 339.052 270.4 338.912L269.94 338.932C269.59 339.302 269.23 339.682 268.86 340.072C269.01 340.212 269.16 340.362 269.32 340.522L269.37 341.412L269.4 341.392ZM185.68 329.362L185.76 330.692C185.99 330.892 186.22 331.092 186.48 331.312L188.34 331.242C188.6 331.032 188.89 330.802 189.05 330.402C188.91 330.032 189.08 329.582 188.86 329.152C188.63 328.962 188.4 328.772 188.21 328.612L186.83 328.662C186.61 328.832 186.46 329.032 186.26 329.092C186.05 329.152 185.81 329.142 185.67 329.352L185.68 329.362ZM213.19 334.562C213.68 335.022 213.68 335.022 213.7 335.342C213.72 335.632 213.73 335.932 213.76 336.232C213.76 336.292 213.82 336.352 213.87 336.432C214.09 336.612 214.32 336.802 214.54 336.972C214.73 336.942 214.91 336.972 215.01 336.892C215.24 336.702 215.44 336.472 215.64 336.272L215.48 333.582C215.25 333.392 215.02 333.192 214.75 332.972L213.84 333.002C213.58 333.202 213.3 333.432 213.15 333.772L213.19 334.562ZM189.43 289.112L189.56 291.362C189.78 291.542 190 291.762 190.25 291.922C190.36 291.992 190.54 291.952 190.78 291.972C191.08 291.532 191.62 291.232 191.87 290.692C191.83 290.032 191.8 289.362 191.75 288.702C191.75 288.642 191.7 288.582 191.66 288.502C191.44 288.322 191.22 288.142 190.99 287.952C190.76 288.302 190.45 288.472 190.07 288.472C189.85 288.692 189.64 288.902 189.44 289.102L189.43 289.112ZM194.94 482.942C194.5 483.362 194.12 483.722 193.78 484.042L193.86 485.422C194.1 485.632 194.33 485.832 194.59 486.052C195.03 486.032 195.49 486.022 195.96 485.992C196.02 485.992 196.07 485.902 196.13 485.862C196.17 485.662 196.22 485.462 196.25 485.302C196.4 485.102 196.53 484.932 196.64 484.792C196.58 484.312 196.66 483.872 196.46 483.442C196.24 483.262 196 483.072 195.82 482.912L194.95 482.942H194.94ZM184.48 241.842C185.07 241.272 185.6 240.752 186.1 240.252L186.02 238.902C185.78 238.702 185.56 238.502 185.31 238.282C185.02 238.282 184.7 238.242 184.41 238.332C184.18 238.412 183.94 238.662 183.8 238.902C183.63 239.192 183.71 239.602 183.35 239.822C183.3 239.852 183.29 239.942 183.29 240.012C183.29 240.442 183.29 240.862 183.75 241.172C183.95 241.302 183.78 241.742 184.15 241.862C184.29 241.852 184.44 241.832 184.48 241.832V241.842ZM165 340.602C164.79 340.822 164.59 341.032 164.36 341.272L164.46 343.032C164.67 343.282 164.93 343.552 165.28 343.702C165.67 343.692 166.06 343.692 166.45 343.652C166.58 343.642 166.69 343.502 166.81 343.432L166.76 342.552C166.91 342.382 167.06 342.222 167.2 342.062C167.18 341.912 167.17 341.762 167.15 341.632C166.74 341.272 166.34 340.922 165.94 340.572L165 340.612V340.602ZM208.21 220.932C208.67 220.912 209.14 220.902 209.6 220.872C209.66 220.872 209.7 220.772 209.8 220.672C209.78 220.372 209.88 220.012 209.65 219.632C209.36 219.522 209.22 219.272 209.26 218.912C208.98 218.702 208.77 218.372 208.4 218.252C207.84 218.272 207.29 218.282 206.75 218.322C206.63 218.322 206.52 218.482 206.42 218.562L206.5 219.892C206.74 220.102 206.97 220.302 207.21 220.502C207.36 220.502 207.51 220.502 207.68 220.502C207.85 220.642 208.02 220.782 208.21 220.932ZM164.23 404.132C163.84 403.752 163.44 403.312 162.91 403.022C162.58 403.052 162.28 403.072 162.04 403.102C161.79 403.372 161.6 403.592 161.42 403.792C161.45 403.972 161.47 404.112 161.49 404.222C161.66 404.392 161.81 404.552 161.98 404.722L162.02 405.452C162.31 405.752 162.52 405.972 162.7 406.162C163.28 406.062 163.85 406.302 164.33 405.902L164.23 404.122V404.132ZM239.48 198.262L239.35 195.972C239.09 195.712 238.86 195.432 238.57 195.322L237.68 195.352C237.42 195.602 237.21 195.812 237.01 196.002L237.11 197.802C237.41 197.972 237.58 198.332 237.97 198.422C238.43 198.382 238.89 198.442 239.48 198.252V198.262ZM163.54 432.212L163.64 433.952C163.92 434.182 164.13 434.502 164.53 434.622C164.8 434.602 165.1 434.572 165.26 434.562C165.57 434.282 165.8 434.082 165.98 433.912C165.93 433.132 165.89 432.402 165.84 431.682C165.84 431.632 165.74 431.582 165.64 431.492C165.32 431.462 164.95 431.432 164.7 431.522C164.45 431.712 164.29 431.892 164.1 431.942C163.88 432.002 163.67 432.012 163.54 432.212ZM289.89 362.882C289.49 362.532 289.09 362.182 288.67 361.822L287.29 361.872C287.05 362.082 286.75 362.272 286.66 362.622C286.78 362.722 286.89 362.822 287.03 362.942C287.09 363.272 287.15 363.612 287.2 363.942C287.45 364.152 287.68 364.342 287.88 364.502L288.8 364.462C289.19 364.062 289.55 363.692 289.91 363.322L289.88 362.872L289.89 362.882ZM163.21 360.932C163.43 360.662 163.61 360.432 163.77 360.242C163.91 360.242 163.99 360.222 164.06 360.242C164.23 360.262 164.38 360.212 164.43 360.052C164.46 359.942 164.35 359.812 164.18 359.802C163.88 359.782 163.57 359.812 163.33 359.822C163.1 359.652 162.92 359.512 162.79 359.412L161.39 359.462C161.16 359.702 160.96 359.912 160.75 360.132L160.8 361.062C161.17 361.372 161.57 361.722 162 362.042C162.1 362.112 162.29 362.062 162.44 362.072C162.84 361.752 163.23 361.432 163.21 360.932ZM289.82 196.952C289.61 197.172 289.4 197.382 289.18 197.622L289.23 198.472C289.08 198.652 288.94 198.812 288.79 198.982C288.83 199.022 288.88 199.122 288.93 199.122C290.29 199.202 291.13 199.162 291.45 199.032C291.64 198.822 291.84 198.602 292 198.422L291.95 197.512C291.69 197.292 291.46 197.092 291.23 196.892C290.76 196.912 290.29 196.932 289.83 196.942L289.82 196.952ZM220.74 194.622C220.993 194.615 221.2 194.555 221.36 194.442C221.45 193.942 221.43 193.442 221.26 192.962C220.97 192.712 220.68 192.462 220.39 192.212C220.37 192.072 220.35 191.922 220.33 191.762C220.18 191.622 220.01 191.462 219.84 191.302L219.79 190.442C219.73 190.382 219.69 190.312 219.62 190.282C219.12 190.112 218.84 190.262 218.86 190.682C218.89 191.192 218.92 191.712 218.96 192.342C219.26 192.552 219.64 192.812 219.96 193.042L220.02 193.992C220.27 194.212 220.5 194.412 220.74 194.612V194.622ZM191.74 368.772C191.44 368.602 191.27 368.242 190.77 368.112C190.4 368.372 189.78 367.902 189.37 368.422L189.45 369.742C189.6 369.882 189.77 370.032 189.94 370.192L189.97 370.602C190.34 371.052 190.79 370.772 191.2 370.752C191.42 370.532 191.62 370.322 191.83 370.122L191.75 368.772H191.74ZM220.4 498.232L220.48 499.572C220.7 499.762 220.94 499.952 221.21 500.182L222.12 500.152C222.39 499.962 222.65 499.722 222.81 499.412C222.87 499.042 222.59 498.892 222.39 498.672C222.21 498.472 222.36 498.092 221.97 497.942H221.58C221.39 497.812 221.22 497.692 221.06 497.562C220.83 497.802 220.63 498.012 220.42 498.232H220.4ZM288.17 347.132C287.99 347.132 287.84 347.132 287.69 347.152C287.2 347.192 287.1 347.262 287.12 347.612C287.16 348.262 287.18 348.922 287.25 349.572C287.25 349.662 287.45 349.802 287.57 349.812C287.87 349.842 288.17 349.812 288.42 349.792C288.67 349.532 288.87 349.322 289.08 349.102L289 347.742C288.8 347.592 288.55 347.412 288.17 347.132ZM231.83 493.282C231.89 492.912 231.6 492.762 231.41 492.542C231.23 492.342 231.38 491.962 231.04 491.842L230.11 491.872C229.89 492.102 229.68 492.322 229.47 492.542L229.52 493.462C229.73 493.632 229.97 493.822 230.27 494.052L231.15 494.022C231.42 493.842 231.68 493.592 231.84 493.282H231.83ZM172.01 453.062C171.88 453.202 171.8 453.342 171.67 453.412C171.48 453.502 171.22 453.492 171.06 453.612C170.83 453.782 170.66 454.022 170.47 454.212C170.89 454.592 171.29 454.942 171.68 455.282C172.01 455.272 172.32 455.262 172.63 455.242C172.69 455.242 172.74 455.142 172.79 455.082C172.86 454.582 172.87 454.082 172.68 453.582C172.47 453.412 172.24 453.232 172.02 453.052L172.01 453.062ZM224.65 201.382L224.7 202.272C224.93 202.472 225.16 202.672 225.4 202.872C225.55 202.872 225.7 202.882 225.88 202.892C226.04 203.022 226.22 203.152 226.4 203.302C226.44 203.262 226.53 203.222 226.54 203.172C226.66 202.672 226.62 202.172 226.46 201.682C226.34 201.582 226.22 201.482 226.11 201.382C226.09 201.312 226.06 201.252 226.04 201.182C225.947 200.835 225.69 200.685 225.27 200.732C225.06 200.952 224.85 201.162 224.65 201.382ZM198.81 345.342C198.83 345.652 198.85 345.942 198.86 346.232C199.22 346.452 199.39 346.982 199.97 346.872C200.31 346.712 200.5 346.402 200.74 346.142C200.71 345.712 200.69 345.272 200.66 344.842C200.28 344.442 199.84 344.682 199.44 344.722C199.22 344.942 199.01 345.152 198.81 345.342ZM288.33 205.512C288.7 205.162 288.91 204.962 289.1 204.782L289.02 203.412C288.81 203.242 288.57 203.062 288.32 202.862C288.3 202.862 288.23 202.862 288.2 202.882C288 203.082 287.8 203.302 287.62 203.492L287.73 205.302C287.91 205.362 288.11 205.432 288.33 205.512ZM209.02 338.962C208.68 339.112 208.88 339.482 208.72 339.692C208.55 339.922 208.28 340.102 208.38 340.462C208.56 340.752 208.83 340.972 209.07 341.092C209.48 340.722 209.87 340.372 210.21 340.062C210.21 339.842 210.21 339.702 210.21 339.552C210.32 339.442 210.42 339.332 210.52 339.232C210.63 339.122 210.58 339.022 210.38 338.912L209 338.962H209.02ZM262.74 211.102C262.74 211.252 262.76 211.392 262.77 211.532C262.62 211.692 262.48 211.852 262.33 212.012L262.36 212.442C262.59 212.642 262.79 212.862 263.05 213.022C263.23 213.132 263.47 213.112 263.66 212.972C263.79 212.872 263.8 212.752 263.78 212.582C263.73 212.082 263.71 211.572 263.68 211.062C263.36 210.855 263.047 210.862 262.74 211.082V211.102ZM159.67 398.042C159.337 397.842 159.023 397.858 158.73 398.092C158.75 398.382 158.76 398.672 158.78 398.962C158.94 399.112 159.11 399.262 159.28 399.412L159.3 399.842C159.633 400.022 159.947 400.005 160.24 399.792C160.22 399.502 160.2 399.212 160.19 398.922C160.02 398.772 159.86 398.622 159.69 398.472L159.66 398.042H159.67ZM213.95 350.802C214.06 350.672 214.2 350.502 214.34 350.342C214.64 350.012 214.63 349.902 214.29 349.452L213.37 349.482C213.22 349.632 213.07 349.782 212.91 349.942C212.85 349.942 212.77 349.962 212.7 349.942C212.53 349.912 212.4 349.952 212.31 350.092C212.25 350.202 212.31 350.282 212.46 350.392C212.64 350.522 212.79 350.692 212.93 350.822L213.95 350.782V350.802ZM185.77 274.662L185.74 274.072C185.37 273.762 184.98 273.412 184.56 273.102C184.46 273.032 184.27 273.032 184.14 273.062C184.02 273.092 183.93 273.222 183.82 273.302L183.84 273.722C184.01 273.872 184.17 274.022 184.32 274.152C184.38 274.372 184.27 274.622 184.55 274.752C184.9 274.822 185.26 274.822 185.77 274.652V274.662ZM228.19 359.402C227.89 359.152 227.7 358.662 227.13 358.772C226.8 358.962 226.57 359.232 226.36 359.572C226.49 359.872 226.25 360.292 226.67 360.562L227.16 360.542C227.49 360.182 227.84 359.792 228.2 359.402H228.19ZM210.92 191.192C210.9 190.612 210.89 190.612 210.28 190.562C209.97 190.742 209.73 190.982 209.59 191.282C209.74 191.462 209.95 191.612 210 191.802C210.06 192.012 210.08 192.222 210.29 192.342L210.75 192.322C210.96 192.102 211.17 191.882 211.39 191.652C211.23 191.502 211.08 191.352 210.91 191.202L210.92 191.192ZM219.47 201.122C219.74 201.312 219.91 201.642 220.22 201.692C220.47 201.472 220.69 201.272 220.88 201.112L220.83 200.202C220.33 199.912 220.21 199.912 219.9 200.222C219.74 200.372 219.6 200.532 219.45 200.682C219.45 200.842 219.47 200.982 219.48 201.122H219.47ZM199.54 217.242C199.34 217.452 199.14 217.662 198.91 217.902C199.05 218.042 199.23 218.162 199.32 218.322C199.44 218.552 199.34 218.892 199.76 219.032C199.9 218.992 200.11 218.932 200.28 218.882C200.31 218.752 200.33 218.692 200.33 218.622C200.32 218.332 200.3 218.042 200.28 217.762C200.24 217.252 200.22 217.232 199.55 217.242H199.54ZM203.54 338.042C203.31 337.842 203.08 337.642 202.84 337.442C202.69 337.442 202.54 337.422 202.33 337.412C202.19 337.682 201.78 337.792 201.74 338.182C201.98 338.382 202.22 338.572 202.43 338.752C202.61 338.732 202.76 338.712 202.91 338.692C203.12 338.472 203.33 338.252 203.53 338.042H203.54ZM208.91 328.712C208.71 328.712 208.56 328.722 208.41 328.732C208.18 328.992 207.86 329.192 207.74 329.532C207.83 329.862 207.62 330.252 208.02 330.512C208.4 330.102 208.88 329.762 209.17 329.222C209.09 329.052 209 328.872 208.92 328.702L208.91 328.712ZM269.09 356.312C268.79 356.322 268.49 356.332 268.19 356.342C268.11 356.452 267.99 356.552 267.97 356.672C267.93 356.882 268.01 357.072 268.21 357.222C268.39 357.352 268.55 357.512 268.72 357.652C268.87 357.492 269.01 357.322 269.18 357.182C269.36 357.022 269.42 356.822 269.36 356.612C269.32 356.492 269.19 356.402 269.1 356.292L269.09 356.312ZM202.1 490.012C202.13 490.442 202.14 490.882 202.19 491.312C202.19 491.382 202.38 491.442 202.47 491.492C202.69 491.272 202.9 491.072 203.09 490.872L203.04 489.982C202.727 489.775 202.413 489.782 202.1 490.002V490.012ZM169.22 428.642C169.68 428.622 170.13 428.612 170.59 428.582C170.65 428.582 170.71 428.492 170.74 428.432C170.76 428.392 170.76 428.312 170.74 428.282C170.54 428.062 170.33 427.862 170.18 427.712L169.14 427.752C168.94 428.065 168.967 428.358 169.22 428.632V428.642ZM193.55 347.552L192.63 347.582C192.43 347.875 192.44 348.172 192.66 348.472L193.58 348.442C193.9 348.002 193.9 348.002 193.55 347.552ZM244.53 369.262C244.38 369.262 244.23 369.272 244.07 369.282C243.91 369.432 243.76 369.592 243.61 369.742C243.46 369.742 243.3 369.742 243.15 369.762C243.09 369.772 243.03 369.852 243 369.922C242.95 370.022 243.03 370.182 243.2 370.192C243.66 370.212 244.11 370.172 244.57 370.152C244.763 369.852 244.75 369.555 244.53 369.262ZM196.57 367.042C196.8 367.042 197.03 367.002 197.25 367.022C197.43 367.032 197.55 367.002 197.63 366.862C197.68 366.762 197.61 366.672 197.46 366.562C197.29 366.422 197.14 366.252 197.03 366.142L196.49 366.162C196.19 366.632 196.19 366.632 196.56 367.052L196.57 367.042ZM259.42 339.062C259.41 338.842 259.38 338.632 259.39 338.412C259.4 338.242 259.37 338.122 259.21 338.042C259.1 337.992 259.01 338.052 258.89 338.202C258.75 338.362 258.57 338.492 258.45 338.602L258.48 339.112C258.98 339.402 258.98 339.402 259.41 339.062H259.42ZM233.85 338.922C233.64 339.142 233.43 339.352 233.23 339.572C233.44 339.832 233.64 340.102 234.01 340.182C234.2 339.972 234.39 339.762 234.58 339.552C234.32 339.322 234.09 339.122 233.85 338.922ZM159.26 350.832C158.76 350.542 158.76 350.542 158.32 350.872L158.35 351.302C158.677 351.495 158.99 351.478 159.29 351.252L159.26 350.822V350.832ZM169.65 315.922C169.95 315.452 169.95 315.452 169.59 315.032L169.13 315.052C168.943 315.365 168.963 315.662 169.19 315.942L169.65 315.922ZM191.08 305.322L191.53 305.302C191.743 305.002 191.73 304.705 191.49 304.412L191.03 304.432C190.823 304.732 190.837 305.028 191.07 305.322H191.08ZM208.47 208.452C208.32 208.452 208.24 208.472 208.17 208.452C207.99 208.412 207.87 208.462 207.8 208.622C207.76 208.722 207.84 208.802 207.98 208.922C208.15 209.052 208.3 209.222 208.41 209.342C208.56 209.342 208.64 209.322 208.71 209.342C208.89 209.382 209.01 209.332 209.08 209.172C209.12 209.072 209.05 208.992 208.9 208.872C208.73 208.732 208.58 208.572 208.47 208.452ZM161.06 341.412C161 341.362 160.95 341.302 160.89 341.272C160.78 341.222 160.68 341.302 160.6 341.452L160.65 342.322C160.71 342.372 160.76 342.432 160.82 342.462C160.93 342.512 161.03 342.442 161.11 342.282C161.09 341.992 161.08 341.702 161.06 341.412ZM183.76 272.182C183.84 272.182 183.92 272.192 183.98 272.172C184.04 272.142 184.1 272.082 184.13 272.022C184.18 271.922 184.11 271.812 183.94 271.742C183.88 271.712 183.79 271.752 183.72 271.742C183.54 271.702 183.41 271.752 183.34 271.912C183.27 272.062 183.47 272.202 183.76 272.192V272.182ZM122.93 628.622C123.29 628.212 123.66 627.812 124.03 627.392L123.92 625.492C123.77 625.342 123.6 625.182 123.43 625.012L123.4 624.542C123.17 624.322 122.93 624.112 122.68 623.872L121.7 623.912C121.44 624.202 121.13 624.542 120.83 624.892C120.74 625.002 120.69 625.152 120.62 625.272L120.66 626.022C120.54 626.182 120.4 626.362 120.29 626.502C121.02 627.182 121.77 627.872 122.58 628.632H122.91L122.93 628.622ZM115.12 627.252L115.2 628.692C115.6 629.042 116 629.412 116.45 629.812L117.81 629.762C118.2 629.362 118.67 628.972 118.95 628.432C118.92 628.112 118.89 627.802 118.86 627.562C118.39 627.162 118.04 626.732 117.62 626.482L116.28 626.532C116.05 626.722 115.9 626.932 115.7 626.992C115.49 627.052 115.26 627.052 115.12 627.272V627.252ZM98.77 632.882C98.95 633.042 99.13 633.192 99.3 633.342C99.54 633.322 99.79 633.382 99.94 633.082L99.86 631.682C99.63 631.422 99.39 631.112 99 630.952C98.72 630.972 98.42 631.002 98.16 631.022C97.93 631.292 97.74 631.522 97.44 631.892C98.3 631.842 97.83 632.682 98.31 632.902L98.77 632.882ZM182.43 667.692C182.61 667.852 182.79 668.002 182.96 668.152C183.2 668.132 183.45 668.192 183.6 667.892L183.52 666.492C183.29 666.232 183.05 665.922 182.66 665.762C182.38 665.782 182.08 665.812 181.82 665.832C181.59 666.112 181.4 666.332 181.1 666.702C181.96 666.652 181.49 667.492 181.97 667.712L182.43 667.692ZM332.67 797.102L332.78 798.892C333 799.082 333.24 799.282 333.5 799.502L334.41 799.472C334.75 799.262 334.98 798.872 335.33 798.592C335.6 798.372 335.5 798.072 335.6 797.832C335.71 797.712 335.81 797.612 335.98 797.432C335.94 796.772 335.91 796.052 335.85 795.332C335.85 795.212 335.69 795.112 335.6 794.992L335.14 795.012C334.98 795.172 334.82 795.322 334.66 795.482L334.25 795.502C333.7 796.062 333.18 796.592 332.67 797.112V797.102ZM326.32 784.022C328.84 779.192 333.67 790.332 326.32 784.022V784.022ZM313.13 787.812C312.92 788.032 312.72 788.242 312.49 788.482L312.59 790.242C312.8 790.492 313.06 790.762 313.41 790.912C313.8 790.902 314.19 790.902 314.58 790.862C314.71 790.852 314.82 790.712 314.94 790.642L314.89 789.762C315.04 789.592 315.19 789.432 315.33 789.272C315.31 789.122 315.3 788.972 315.28 788.842C314.87 788.482 314.47 788.132 314.07 787.782L313.13 787.822V787.812ZM346.94 792.552C346.96 792.862 346.98 793.152 346.99 793.442C347.35 793.662 347.52 794.192 348.1 794.082C348.44 793.922 348.63 793.612 348.87 793.352C348.84 792.922 348.82 792.482 348.79 792.052C348.41 791.652 347.97 791.892 347.58 791.932C347.35 792.152 347.14 792.362 346.95 792.552H346.94ZM362.09 798.012C362.2 797.882 362.34 797.712 362.48 797.552C362.78 797.222 362.77 797.122 362.42 796.662L361.5 796.692C361.35 796.842 361.2 796.992 361.04 797.152C360.98 797.152 360.9 797.172 360.83 797.152C360.65 797.122 360.53 797.162 360.44 797.302C360.37 797.412 360.44 797.492 360.59 797.602C360.77 797.732 360.92 797.902 361.06 798.032L362.08 797.992L362.09 798.012ZM351.67 785.252C351.44 785.052 351.21 784.852 350.97 784.652C350.82 784.652 350.67 784.642 350.46 784.632C350.32 784.902 349.91 785.012 349.87 785.402C350.11 785.602 350.35 785.792 350.56 785.972C350.74 785.952 350.89 785.932 351.04 785.912C351.25 785.692 351.46 785.472 351.66 785.262L351.67 785.252ZM357.04 775.922C356.84 775.922 356.69 775.932 356.54 775.942C356.31 776.202 355.98 776.402 355.86 776.742C355.95 777.072 355.74 777.462 356.14 777.722C356.52 777.312 357 776.972 357.29 776.442C357.21 776.272 357.12 776.092 357.04 775.922ZM341.67 794.762L340.75 794.792C340.55 795.085 340.563 795.382 340.79 795.682L341.71 795.652C341.923 795.358 341.91 795.062 341.67 794.762ZM307.39 798.052C307.057 797.858 306.743 797.872 306.45 798.092L306.48 798.522C306.98 798.812 306.98 798.812 307.42 798.472L307.39 798.042V798.052ZM317.78 763.132C318.08 762.672 318.08 762.662 317.72 762.242L317.26 762.262C317.073 762.575 317.093 762.872 317.32 763.152L317.78 763.132ZM309.19 788.622C309.13 788.572 309.08 788.512 309.02 788.482C308.91 788.432 308.81 788.502 308.73 788.662L308.78 789.532C308.84 789.582 308.89 789.642 308.95 789.672C309.06 789.722 309.16 789.652 309.24 789.492C309.22 789.202 309.21 788.912 309.19 788.622ZM246.87 713.652C246.89 713.962 246.91 714.252 246.92 714.542C247.28 714.762 247.45 715.292 248.03 715.182C248.37 715.022 248.56 714.712 248.8 714.452C248.77 714.022 248.75 713.582 248.72 713.152C248.34 712.752 247.9 712.992 247.5 713.032C247.28 713.252 247.07 713.462 246.87 713.652ZM257.08 707.282C256.74 707.432 256.94 707.802 256.78 708.012C256.61 708.242 256.34 708.422 256.44 708.782C256.62 709.072 256.89 709.292 257.13 709.412C257.54 709.042 257.93 708.692 258.27 708.382C258.27 708.162 258.27 708.022 258.27 707.872C258.37 707.762 258.48 707.652 258.58 707.552C258.69 707.442 258.65 707.342 258.44 707.232L257.06 707.282H257.08ZM262.02 719.122C262.13 718.992 262.27 718.822 262.41 718.662C262.71 718.332 262.7 718.232 262.36 717.772L261.44 717.802C261.29 717.952 261.14 718.102 260.98 718.262C260.92 718.262 260.84 718.282 260.77 718.262C260.6 718.232 260.47 718.282 260.38 718.412C260.32 718.522 260.38 718.602 260.53 718.712C260.71 718.842 260.86 719.012 261 719.142L262.02 719.102V719.122ZM251.61 706.362C251.38 706.162 251.15 705.962 250.91 705.762C250.76 705.762 250.61 705.752 250.4 705.732C250.26 706.002 249.85 706.112 249.81 706.502C250.05 706.702 250.29 706.892 250.5 707.072C250.68 707.052 250.83 707.032 250.98 707.012C251.19 706.792 251.4 706.572 251.6 706.362H251.61ZM256.97 697.032C256.77 697.032 256.62 697.042 256.47 697.052C256.24 697.312 255.91 697.502 255.8 697.852C255.89 698.182 255.68 698.572 256.08 698.832C256.46 698.422 256.93 698.082 257.23 697.552C257.15 697.382 257.06 697.202 256.98 697.032H256.97ZM241.61 715.872L240.69 715.902C240.49 716.195 240.5 716.492 240.72 716.792L241.64 716.752C241.853 716.458 241.843 716.162 241.61 715.862V715.872Z" fill="#F2F2F3"/>
</svg>
