<svg width="616" height="638" viewBox="0 0 616 638" fill="none" xmlns="http://www.w3.org/2000/svg">
<path fill-rule="evenodd" clip-rule="evenodd" d="M578.16 307.38L308 27.71L26.79 318.79L308 609.87L589.13 318.79L578.17 307.38H578.16ZM332.02 24.88L616 318.79L308 637.58L0 318.79L308 0L332.02 24.88Z" fill="#F2F2F2"/>
<path fill-rule="evenodd" clip-rule="evenodd" d="M311.8 65.7398L359.9 115.47C362.06 117.58 362.05 120.92 359.88 123.02L239.49 245.68H264.47L372.23 136.14C373.14 135.02 374.61 134.46 376.03 134.46C377.64 134.46 378.91 135.04 380.01 136.16L426.93 184.68L430.87 188.92C433.03 191.03 433.02 194.38 430.84 196.48L372.54 255.41H397.61L443.21 209.57C444.13 208.45 445.59 207.9 447 207.9C448.61 207.9 449.87 208.48 450.97 209.6L536.74 298.57C538.37 300.14 538.84 302.33 537.87 304.4C537.09 306.46 535.22 307.7 532.94 307.7H83.0403C80.8603 307.7 78.8903 306.46 78.1103 304.4C77.2303 302.33 77.6103 300.14 79.1403 298.57L304.1 65.7498C305.21 64.6198 306.48 64.0498 308 64.0498C309.62 64.0498 310.89 64.6198 311.81 65.7498" fill="#F2F2F2"/>
<path fill-rule="evenodd" clip-rule="evenodd" d="M310.27 569.71L392.91 486.12C394.6 484.57 395.08 482.21 394.07 480.01C393.26 477.82 391.13 476.51 388.78 476.51H325.49C319.91 476.51 315.19 471.95 315.19 466.21C315.19 460.55 319.89 455.91 325.49 455.91H424.85C447.61 455.91 447 426.14 424.17 426.14H400.64C395.05 426.14 390.34 421.44 390.34 415.74C390.34 410.04 395.04 405.44 400.64 405.44H464.27C489.15 405.44 486.19 375.24 467.93 375.24H354.97C348.76 375.24 343.51 369.99 343.51 363.68C343.51 357.36 348.76 352.22 354.97 352.22H527.11C548.19 352.22 545.79 327.77 528.85 327.77H95.7099C74.6299 327.77 76.0899 359.04 100.55 359.04H181.06C203.23 359.04 200.58 381.91 183.24 381.91H145.58C130.86 381.91 129.6 406.02 146.58 406.02H278.85C284.54 406.02 289.15 410.73 289.15 416.32C289.15 422 284.53 426.72 278.85 426.72H191.28C172.03 426.72 170.15 458.95 193.08 458.95H263.54C269.23 458.95 273.94 463.61 273.94 469.25C273.94 475 269.23 479.58 263.54 479.58H245.95C225.1 479.58 222.68 508.42 248.49 508.42H297.23C302.92 508.42 307.63 513.13 307.63 518.72C307.63 524.51 302.92 529.21 297.23 529.21H276.51C274.26 529.21 272.23 530.49 271.32 532.52C270.41 534.75 270.81 537.11 272.48 538.83L302.36 569.72C303.47 570.85 304.74 571.42 306.26 571.42C307.78 571.42 309.14 570.84 310.26 569.72" fill="#F2F2F2"/>
<path fill-rule="evenodd" clip-rule="evenodd" d="M578.16 307.38L308 27.71L26.79 318.79L308 609.87L589.13 318.79L578.17 307.38H578.16ZM332.02 24.88L616 318.79L308 637.58L0 318.79L308 0L332.02 24.88Z" fill="#F2F2F2"/>
<path fill-rule="evenodd" clip-rule="evenodd" d="M311.8 65.7398L359.9 115.47C362.06 117.58 362.05 120.92 359.88 123.02L239.49 245.68H264.47L372.23 136.14C373.14 135.02 374.61 134.46 376.03 134.46C377.64 134.46 378.91 135.04 380.01 136.16L426.93 184.68L430.87 188.92C433.03 191.03 433.02 194.38 430.84 196.48L372.54 255.41H397.61L443.21 209.57C444.13 208.45 445.59 207.9 447 207.9C448.61 207.9 449.87 208.48 450.97 209.6L536.74 298.57C538.37 300.14 538.84 302.33 537.87 304.4C537.09 306.46 535.22 307.7 532.94 307.7H83.0403C80.8603 307.7 78.8903 306.46 78.1103 304.4C77.2303 302.33 77.6103 300.14 79.1403 298.57L304.1 65.7498C305.21 64.6198 306.48 64.0498 308 64.0498C309.62 64.0498 310.89 64.6198 311.81 65.7498" fill="#F2F2F2"/>
<path fill-rule="evenodd" clip-rule="evenodd" d="M310.27 569.71L392.91 486.12C394.6 484.57 395.08 482.21 394.07 480.01C393.26 477.82 391.13 476.51 388.78 476.51H325.49C319.91 476.51 315.19 471.95 315.19 466.21C315.19 460.55 319.89 455.91 325.49 455.91H424.85C447.61 455.91 447 426.14 424.17 426.14H400.64C395.05 426.14 390.34 421.44 390.34 415.74C390.34 410.04 395.04 405.44 400.64 405.44H464.27C489.15 405.44 486.19 375.24 467.93 375.24H354.97C348.76 375.24 343.51 369.99 343.51 363.68C343.51 357.36 348.76 352.22 354.97 352.22H527.11C548.19 352.22 545.79 327.77 528.85 327.77H95.7099C74.6299 327.77 76.0899 359.04 100.55 359.04H181.06C203.23 359.04 200.58 381.91 183.24 381.91H145.58C130.86 381.91 129.6 406.02 146.58 406.02H278.85C284.54 406.02 289.15 410.73 289.15 416.32C289.15 422 284.53 426.72 278.85 426.72H191.28C172.03 426.72 170.15 458.95 193.08 458.95H263.54C269.23 458.95 273.94 463.61 273.94 469.25C273.94 475 269.23 479.58 263.54 479.58H245.95C225.1 479.58 222.68 508.42 248.49 508.42H297.23C302.92 508.42 307.63 513.13 307.63 518.72C307.63 524.51 302.92 529.21 297.23 529.21H276.51C274.26 529.21 272.23 530.49 271.32 532.52C270.41 534.75 270.81 537.11 272.48 538.83L302.36 569.72C303.47 570.85 304.74 571.42 306.26 571.42C307.78 571.42 309.14 570.84 310.26 569.72" fill="#F2F2F2"/>
</svg>
